<svg width="295" height="266" viewBox="0 0 295 266" fill="none" xmlns="http://www.w3.org/2000/svg">
<g opacity="0.2" clip-path="url(#clip0_1122_11568)">
<path d="M111.38 0.41011C108.381 1.90973 106.445 7.55371 106.091 15.8152L105.927 19.7687L105.327 18.6508C104.346 16.824 101.619 13.334 99.7376 11.48C96.084 7.93542 90.5764 4.58176 85.3959 2.75496C83.351 2.01878 83.1056 1.99152 82.942 2.40051C82.8329 2.64589 82.7511 5.67238 82.7511 9.13512C82.7511 15.897 82.9965 17.6693 84.4143 22.0045C85.1505 24.1857 86.9228 27.9484 87.8225 29.2299C88.1225 29.6116 88.3406 30.0206 88.3406 30.0751C88.3406 30.1569 86.95 29.5843 85.2868 28.7664C78.6068 25.5763 72.7447 24.7856 70.2362 26.7487C68.6275 28.0302 67.9459 30.9476 68.8457 32.7199C69.8545 34.6557 72.9355 35.4464 74.626 34.1922C77.4889 32.0655 77.2708 28.3574 74.1625 26.776L72.9355 26.1489L75.0622 26.3125C78.0069 26.5306 81.3606 27.5667 85.2323 29.4207C88.0679 30.784 88.8859 31.3566 91.0944 33.4015C92.5122 34.683 94.5844 36.3735 95.7023 37.1369C96.8202 37.9003 97.5018 38.4457 97.2019 38.3639C96.902 38.2821 95.4024 37.8458 93.8483 37.3823C84.5234 34.6285 75.8529 36.2099 69.9908 41.7175C69.0638 42.59 68.3822 43.3807 68.464 43.4625C68.5458 43.5443 69.6364 43.4353 70.9179 43.2171C72.1721 42.9718 74.8168 42.7809 76.7527 42.7536C79.6429 42.7264 80.679 42.8354 82.424 43.2989C86.7047 44.4986 90.0311 46.6526 93.821 50.6607C97.1747 54.2052 99.165 57.0954 103.609 64.9206C105.409 68.1107 107.89 70.3192 111.925 72.3368C115.579 74.1636 117.433 74.5726 121.877 74.5726C125.476 74.5726 125.94 74.5181 127.003 73.9455C128.148 73.3457 128.203 73.3184 128.585 73.8092C129.812 75.3088 135.428 84.0338 137.037 86.8421C139.818 91.7772 143.526 99.5479 144.671 102.929C145.217 104.565 145.844 106.119 146.007 106.337C146.362 106.773 148.107 111.817 147.943 111.981C147.889 112.036 146.907 110.7 145.735 109.036C131.693 89.0507 113.725 75.6087 94.6117 70.7554C88.6133 69.2286 85.9685 68.9286 77.8161 68.7923L70.1544 68.656L69.6909 67.838C69.1729 66.9928 68.3004 66.5293 67.1825 66.5293C66.6099 66.5293 66.5281 66.6656 66.5281 67.5108C66.5281 68.247 66.719 68.6832 67.3733 69.2831C67.8368 69.7193 68.3276 70.0738 68.4367 70.0738C68.5458 70.0738 68.7093 73.5365 68.7911 77.7627C68.9002 83.9793 69.0365 86.106 69.5 88.6962C73.4536 110.809 86.6774 129.895 109.008 145.709C110.698 146.908 112.007 147.917 111.98 147.972C111.816 148.108 106.772 146.363 106.336 146.009C106.118 145.818 105.082 145.381 104.018 145.054C97.5836 142.982 87.359 137.693 78.934 132.076C72.6356 127.877 73.1809 128.422 73.9443 127.004C74.5169 125.941 74.5714 125.478 74.5714 121.878C74.5714 117.216 74.1352 115.444 71.954 111.218C69.6091 106.746 68.0277 105.301 61.2113 101.457C53.3588 97.0395 47.4422 91.5864 44.8247 86.3786C43.216 83.1886 42.6979 80.8164 42.7525 76.7539C42.7797 74.7907 42.9706 72.1732 43.216 70.919C43.4341 69.6375 43.5432 68.5469 43.4614 68.4651C43.1615 68.1652 40.135 71.6552 39.0171 73.5365C35.7725 79.0442 35.1726 86.4059 37.3539 93.7949C37.8174 95.3763 38.2809 96.9032 38.3627 97.2031C38.4445 97.503 37.8992 96.8214 37.1358 95.7035C36.3723 94.5856 34.6818 92.5134 33.4004 91.0956C31.3554 88.8871 30.7829 88.0691 29.4196 85.2335C27.5655 81.3618 26.4749 77.8445 26.284 74.9816L26.1477 72.9367L26.7748 74.1636C28.3562 77.2719 32.0643 77.49 34.1911 74.6272C35.4453 72.9367 34.6546 69.8557 32.7187 68.8468C30.9465 67.9471 28.029 68.6287 26.7475 70.2374C24.7844 72.7458 25.5751 78.6079 28.7652 85.2607C29.5832 86.9512 30.1558 88.3418 30.074 88.3418C30.0194 88.3418 29.6104 88.1236 29.2287 87.8237C26.9111 86.215 21.867 84.1701 17.859 83.2703C15.6232 82.7523 7.907 82.4524 4.47153 82.7523L2.12669 82.9432L2.31755 83.8702C2.80833 86.5968 6.02567 92.9224 8.72497 96.5214C11.1243 99.7388 14.9143 103.12 18.4043 105.137L19.7675 105.928L15.814 106.092C8.8613 106.392 3.68083 107.809 1.47232 110.018C0.190831 111.327 -0.190888 112.472 0.109034 114.299C0.490753 116.643 2.12669 117.925 4.4988 117.734C6.97997 117.516 8.45231 115.88 8.45231 113.317C8.45231 112.226 8.31599 111.899 7.41622 110.918C6.46192 109.909 6.21653 109.8 4.60786 109.636L2.86286 109.473L5.04411 108.6C8.47958 107.264 11.4515 106.801 16.7683 106.773C20.9127 106.746 21.6489 106.828 23.5847 107.4C24.7844 107.755 26.9929 108.246 28.4925 108.518L31.2191 108.982L28.7652 109.336C20.5583 110.481 14.0418 113.753 10.0065 118.743C8.69771 120.352 6.70732 124.06 6.38013 125.478C6.21653 126.186 6.38013 126.105 8.91583 124.414C11.9696 122.342 15.1597 120.788 17.7226 120.079C20.4492 119.316 26.6658 119.37 29.5832 120.188C34.9272 121.715 39.6442 124.005 45.6699 128.013C51.6956 132.021 53.7405 132.676 60.0934 132.43C64.5377 132.267 66.5008 131.803 70.0181 130.031L72.2811 128.886L73.5626 129.785C78.9885 133.63 85.2868 137.556 88.695 139.219C89.8402 139.792 90.849 140.474 90.9308 140.719C91.0126 140.964 91.4761 141.292 91.9669 141.455C92.8394 141.755 92.8394 141.755 91.7488 141.619C91.1489 141.537 89.7311 141.292 88.6133 141.073C76.4528 138.783 67.8368 140.828 61.4567 147.563C59.1936 149.962 57.8031 152.143 56.6307 155.197C55.84 157.269 55.7854 157.733 55.7854 160.732C55.7854 164.576 56.1944 165.749 58.1848 167.903C59.9298 169.757 62.0565 170.738 64.6468 170.902C66.4736 171.011 66.9098 170.929 68.4094 170.275C70.3725 169.375 72.3629 167.358 72.7992 165.831C73.6172 162.886 72.6901 160.759 69.9363 159.069L69.1183 158.578L69.9636 159.532C72.3902 162.177 72.2266 164.958 69.5273 166.785C67.1825 168.394 62.7654 166.921 61.2931 164.058C59.6026 160.732 62.3019 155.633 67.0189 153.261L68.7366 152.389L73.9716 152.47L79.2066 152.552L80.9789 151.707C81.9604 151.244 83.7327 150.044 84.9324 149.035C88.9677 145.654 91.2853 144.918 96.8475 145.191C101.046 145.381 101.564 145.49 107.508 147.672C110.617 148.817 111.707 149.308 111.326 149.444C111.053 149.553 108.626 149.662 105.927 149.662C99.0832 149.717 96.493 150.507 93.4938 153.479C91.667 155.333 91.1762 156.697 90.8218 161.032C90.6582 162.722 90.4673 164.685 90.3582 165.422L90.1947 166.758L94.0936 166.267C98.5652 165.722 99.3286 165.503 100.856 164.413C102.519 163.186 103.718 161.141 104.809 157.569C105.382 155.688 106.118 153.97 106.609 153.261C107.59 151.925 109.444 150.671 111.407 150.044L112.825 149.608L117.706 150.862C128.939 153.752 134.31 154.461 145.735 154.461H154.46L154.542 147.235C154.651 135.838 153.587 127.55 150.452 116.098C149.606 112.908 149.579 112.881 150.043 111.436C150.67 109.445 151.897 107.591 153.26 106.61C153.969 106.119 155.687 105.383 157.568 104.81C161.14 103.72 163.185 102.52 164.412 100.857C165.502 99.3298 165.72 98.5664 166.266 94.0948L166.757 90.1958L165.366 90.3867C164.63 90.4685 162.667 90.6593 161.031 90.7957C156.75 91.1501 155.332 91.6682 153.478 93.495C150.506 96.4942 149.715 99.0844 149.661 105.928C149.661 108.627 149.552 111.054 149.443 111.327C149.307 111.708 148.816 110.618 147.671 107.509C145.489 101.566 145.38 101.157 145.189 96.8759C144.917 91.2864 145.653 88.9961 149.034 84.9336C150.015 83.7339 151.215 81.9616 151.706 80.98L152.551 79.2078L152.469 73.9728L152.388 68.7378L153.26 67.02C154.978 63.6118 158.713 60.8035 161.603 60.7489C164.93 60.6672 167.656 63.8845 167.356 67.5381C167.165 69.8284 165.72 71.3825 163.539 71.6279C162.149 71.7915 160.976 71.3007 159.531 69.9647L158.577 69.1195L159.068 69.9375C160.758 72.6913 162.885 73.6183 165.829 72.8004C167.356 72.3641 169.374 70.3737 170.274 68.4106C170.928 66.911 171.01 66.4747 170.901 64.6479C170.737 62.0577 169.756 59.931 167.902 58.186C165.748 56.1683 164.575 55.7866 160.731 55.7866C157.732 55.7866 157.268 55.8684 155.196 56.6591C153.969 57.1226 152.197 57.9406 151.27 58.5132C149.307 59.7128 146.198 62.5485 144.78 64.5116C140.445 70.3464 139.164 78.7715 141.1 88.7507C141.29 89.7868 141.536 91.1501 141.618 91.75C141.754 92.8406 141.754 92.8406 141.454 91.9681C141.29 91.4773 140.963 91.0138 140.718 90.932C140.472 90.8502 139.791 89.8414 139.218 88.6962C137.746 85.6697 135.892 82.6432 132.156 77.0811L128.885 72.2005L129.839 70.401C130.384 69.3922 131.175 67.5381 131.584 66.2566C132.293 64.1026 132.347 63.6118 132.347 59.3039C132.375 52.8147 132.02 51.6695 128.012 45.6711C123.949 39.5636 121.523 34.6285 120.187 29.6661C119.369 26.6396 119.314 20.4231 120.078 17.7238C120.787 15.1608 122.341 11.9707 124.413 8.91699C126.458 5.86324 126.403 5.80872 123.05 7.36285C115.552 10.8256 110.807 18.2418 109.335 28.7664L108.981 31.2203L108.517 28.4664C108.244 26.9396 107.754 24.7856 107.399 23.695C106.827 21.8954 106.772 21.1865 106.772 16.9058C106.772 11.4527 107.236 8.53526 108.599 5.04527L109.471 2.86401L109.635 4.60902C109.799 6.2177 109.908 6.46309 110.917 7.41737C111.898 8.31714 112.225 8.45348 113.316 8.45348C115.933 8.45348 117.542 6.98112 117.733 4.3909C117.787 3.19121 117.706 2.67316 117.242 1.96425C116.206 0.301056 113.207 -0.489655 111.38 0.41011ZM108.272 39.4818C114.816 46.1891 117.46 49.7609 120.65 56.3046C122.695 60.5035 124.086 64.0754 125.776 69.4739L126.731 72.5277L125.749 71.737C124.386 70.6464 118.496 64.5934 116.751 62.4667C113.534 58.595 110.071 52.8146 107.836 47.5796C106.472 44.3896 104.864 39.7544 104.4 37.655C104.264 36.9733 104.073 36.1826 103.991 35.91C103.909 35.6646 103.964 35.4464 104.1 35.4464C104.236 35.4464 106.118 37.246 108.272 39.4818ZM125.149 47.1707C126.921 50.7152 127.958 53.5781 128.557 56.4955C129.266 60.0128 129.812 70.0193 129.266 69.6921C128.857 69.4194 125.449 63.6391 124.577 61.7578C122.014 56.0593 120.541 48.2067 120.978 42.5082L121.141 40.2997L122.341 42.181C123.022 43.1899 124.277 45.4529 125.149 47.1707ZM103.418 54.8323C111.216 58.7313 115.306 62.3849 120.487 70.1556C122.314 72.9094 122.423 73.1548 121.496 72.8004C119.832 72.1732 114.516 69.3922 112.771 68.2197C110.562 66.7747 106.091 62.5485 104.155 60.0946C102.737 58.3496 99.7922 53.7962 99.7922 53.3872C99.7922 53.0328 99.874 53.06 103.418 54.8323ZM88.6405 71.2735C101.592 73.5365 113.725 79.3441 125.422 88.8325C128.775 91.5591 136.655 99.4116 139.791 103.174C142.245 106.092 147.207 112.963 148.707 115.498C149.497 116.807 149.906 118.061 150.752 121.878C152.388 129.24 153.56 137.42 153.478 141.373C153.451 142.546 153.369 142.273 152.769 139.465C151.324 132.403 148.27 124.932 144.562 119.397C136.573 107.509 125.013 101.02 110.753 100.42C106.609 100.257 106.554 100.257 105.436 99.3843C103.855 98.2119 102.628 97.5303 100.883 96.8214C99.5195 96.3033 95.675 95.349 95.5115 95.5126C95.3479 95.6762 96.3022 99.5207 96.8202 100.884C97.5291 102.629 98.2107 103.856 99.3832 105.437C100.256 106.555 100.256 106.61 100.419 110.754C101.019 125.096 107.508 136.575 119.56 144.645C125.667 148.735 132.211 151.271 141.509 153.207L142.736 153.452L141.372 153.479C137.501 153.561 129.266 152.416 121.877 150.753C118.06 149.908 116.806 149.499 115.47 148.708C112.989 147.235 106.118 142.246 103.119 139.765C99.3832 136.656 91.5852 128.804 88.8314 125.423C79.3429 113.753 73.5354 101.593 71.2723 88.6417C70.6725 85.288 70.5361 83.5157 70.4271 77.4628L70.2635 70.2646L77.4616 70.4282C83.5146 70.5373 85.2868 70.6736 88.6405 71.2735ZM161.412 94.1766C161.412 94.2311 160.84 94.6401 160.131 95.0491C155.441 97.7484 153.096 100.475 151.297 105.246C150.343 107.782 150.261 107.019 151.188 104.238C152.088 101.593 153.287 99.7661 155.441 97.7484C157.295 96.0307 161.412 93.5495 161.412 94.1766ZM101.973 99.2753C103.255 99.4661 104.4 99.6843 104.509 99.7933C104.618 99.9024 103.991 100.311 103.064 100.693C101.51 101.375 101.374 101.511 100.692 103.065C100.31 103.992 99.9012 104.619 99.7922 104.51C99.6286 104.319 98.9742 100.202 98.9742 99.3025C98.9742 98.8936 99.0832 98.8936 101.973 99.2753ZM56.0308 101.293C57.3396 102.111 59.1664 103.392 60.0934 104.129C62.5746 106.119 66.5008 110.291 68.1095 112.663C69.391 114.544 72.1448 119.724 72.7992 121.497C73.1536 122.424 72.9082 122.315 70.1544 120.488C64.565 116.753 60.5297 112.963 58.0212 109.064C56.7397 107.101 53.1679 100.366 53.1679 99.9296C53.1679 99.6025 53.7678 99.8751 56.0308 101.293ZM116.479 102.138C129.975 104.456 140.445 112.69 146.962 126.077C150.397 133.139 152.333 140.555 152.987 149.199C153.124 151.298 153.206 153.07 153.151 153.152C152.906 153.37 145.38 152.689 142.436 152.171C128.912 149.798 117.351 143.555 110.317 134.802C104.836 127.959 102.11 120.542 101.537 110.999L101.346 107.891L102.9 108.055C103.773 108.137 105.191 108.082 106.063 107.918L107.645 107.646L107.917 106.064C108.081 105.192 108.135 103.774 108.054 102.902L107.89 101.347L110.998 101.538C112.716 101.62 115.17 101.893 116.479 102.138ZM104.509 104.401C103.5 105.437 102.628 106.201 102.573 106.092C102.546 105.983 102.601 105.219 102.71 104.401C102.928 102.929 102.928 102.929 104.018 102.765C106.527 102.384 106.527 102.384 104.509 104.401ZM39.0171 104.81C47.1968 107.046 56.4671 111.763 62.4383 116.698C64.5922 118.498 70.6452 124.36 71.7358 125.75L72.5265 126.732L69.4728 125.777C62.3565 123.569 55.7309 120.733 51.3957 118.061C48.042 115.989 44.1975 112.854 39.7533 108.573C36.0724 104.974 35.0908 103.883 35.5271 103.883C35.5816 103.883 37.1358 104.292 39.0171 104.81ZM47.8511 121.088C54.5858 121.66 60.2843 123.487 65.901 126.841C70.318 129.486 70.3453 129.513 68.0277 129.513C64.974 129.513 58.6483 128.995 56.5489 128.559C52.459 127.741 47.9875 125.832 42.8615 122.724L40.2986 121.197L41.9072 121.033C42.7797 120.951 43.734 120.87 44.034 120.842C44.3339 120.815 46.0516 120.924 47.8511 121.088ZM105.245 151.298C100.474 153.098 97.7472 155.442 95.0207 160.132C93.8755 162.15 93.8755 161.441 95.0752 159.178C97.0929 155.333 100.637 152.307 104.7 151.025C107.099 150.262 107.481 150.453 105.245 151.298Z" fill="#4B87E1"/>
<path d="M81.0607 79.044C80.2972 79.1531 79.5611 79.3167 79.452 79.4258C78.6613 80.2165 78.5795 92.6496 79.3157 97.7483C80.5426 106.037 83.7327 115.007 87.8226 121.742C89.1586 123.978 97.311 134.257 97.5564 134.039C97.5836 133.984 96.7384 132.539 95.6205 130.849C89.3494 121.251 85.9412 113.481 83.4601 103.011C81.8241 96.1669 81.4697 93.3585 81.5787 87.4691C81.6333 84.5244 81.7696 82.016 81.8786 81.8797C82.015 81.7706 84.5234 81.607 87.4408 81.5798C91.9669 81.498 93.2757 81.5525 96.2204 82.0705C109.962 84.4426 120.132 88.4507 131.42 95.976C132.702 96.8212 133.929 97.6119 134.147 97.7483C136.355 98.948 124.004 89.1596 121.332 87.5782C114.243 83.4065 105.163 80.271 96.9838 79.2076C93.7119 78.7987 84.0054 78.6896 81.0607 79.044Z" fill="#4B87E1"/>
<path d="M129.103 126.159C127.903 126.377 126.84 126.623 126.731 126.732C126.431 127.032 125.695 131.694 125.695 133.248C125.695 137.065 127.003 139.874 130.302 143.173C134.065 146.936 137.719 148.462 146.907 150.044C148.898 150.398 150.561 150.644 150.588 150.589C150.643 150.562 150.343 148.599 149.934 146.281C148.407 137.583 146.934 134.121 143.145 130.303C138.973 126.05 135.428 125.014 129.103 126.159ZM136.165 134.175C141.345 136.356 145.898 140.964 147.916 146.063C149.007 148.817 149.034 148.953 148.27 148.735C142.027 146.854 136.683 142.082 134.174 136.166C133.738 135.129 133.302 133.984 133.193 133.657C133.029 133.057 133.056 133.03 133.656 133.194C133.983 133.303 135.128 133.739 136.165 134.175Z" fill="#4B87E1"/>
<path d="M134.692 134.857C134.692 135.429 137.146 139.546 138.237 140.801C140.827 143.773 145.462 147.317 147.889 148.217C148.598 148.49 148.407 147.999 146.771 145.272C144.371 141.264 140.691 137.638 137.173 135.811C134.992 134.666 134.692 134.557 134.692 134.857Z" fill="#4B87E1"/>
<path d="M233.476 0.546417C231.84 1.28259 231.158 2.45502 231.267 4.39087C231.458 6.98111 233.067 8.45345 235.684 8.45345C236.775 8.45345 237.102 8.31712 238.083 7.41736C239.092 6.46306 239.201 6.21767 239.365 4.60899L239.528 2.864L240.401 5.04524C241.737 8.48071 242.201 11.4527 242.228 16.7695C242.228 21.132 242.173 21.5955 241.383 24.5402C240.919 26.2852 240.428 28.4664 240.319 29.3934C240.237 30.3477 240.101 31.0567 240.047 31.0294C239.992 30.9749 239.774 29.6661 239.556 28.0847C238.029 17.9419 233.312 10.771 225.95 7.36282C222.597 5.80869 222.542 5.86322 224.587 8.91696C226.659 11.9707 228.213 15.1608 228.922 17.7238C229.304 19.0598 229.44 20.4503 229.413 23.4495C229.413 26.9123 229.331 27.7303 228.677 30.0206C227.232 35.1192 225.078 39.509 220.988 45.671C216.98 51.6695 216.625 52.8146 216.653 59.3039C216.653 63.6118 216.707 64.1026 217.416 66.2566C217.825 67.5381 218.616 69.3921 219.161 70.401L220.143 72.255L219.216 73.5365C215.371 78.9896 211.445 85.2607 209.782 88.6962C209.209 89.8414 208.527 90.8502 208.282 90.932C208.037 91.0138 207.71 91.4773 207.546 91.9681C207.273 92.786 207.273 92.7588 207.41 91.6136C207.491 90.932 207.71 89.596 207.9 88.6144C209.509 80.7892 208.882 73.1003 206.264 67.8925C204.928 65.2478 203.62 63.5028 201.302 61.3215C198.985 59.1403 196.776 57.777 193.804 56.6591C191.732 55.8684 191.268 55.7866 188.269 55.7866C184.425 55.7866 183.252 56.1683 181.098 58.186C179.244 59.931 178.263 62.0577 178.099 64.6479C177.99 66.4747 178.072 66.911 178.726 68.4106C179.626 70.3737 181.644 72.3641 183.17 72.8003C186.115 73.6183 188.242 72.6913 189.932 69.9374L190.423 69.1195L189.469 69.9647C186.824 72.3913 184.043 72.2278 182.216 69.5285C180.607 67.1836 182.08 62.7666 184.943 61.2942C188.269 59.6038 193.368 62.3031 195.74 67.02L196.612 68.7378L196.531 73.9728L196.449 79.2078L197.294 80.98C197.785 81.9616 198.985 83.7339 199.966 84.9335C203.347 88.9961 204.083 91.2864 203.811 96.8486C203.62 101.048 203.511 101.566 201.329 107.509C200.184 110.618 199.693 111.708 199.557 111.327C199.448 111.054 199.339 108.627 199.339 105.928C199.284 99.0844 198.494 96.4942 195.522 93.4949C193.668 91.6682 192.25 91.1501 187.969 90.7957C186.333 90.6593 184.37 90.4685 183.634 90.3867L182.243 90.1958L182.734 94.0948C183.28 98.5664 183.498 99.3298 184.588 100.857C185.815 102.52 187.86 103.72 191.432 104.81C193.313 105.383 195.031 106.119 195.74 106.61C197.103 107.591 198.33 109.445 198.957 111.436C199.421 112.881 199.393 112.908 198.548 116.098C195.413 127.55 194.349 135.838 194.458 147.235L194.54 154.461H203.265C214.69 154.461 220.061 153.752 231.294 150.862L236.175 149.608L237.593 150.044C239.556 150.671 241.41 151.925 242.391 153.261C242.882 153.97 243.618 155.688 244.191 157.569C245.282 161.141 246.481 163.186 248.144 164.413C249.671 165.503 250.435 165.722 254.906 166.267L258.805 166.758L258.642 165.422C258.533 164.685 258.342 162.722 258.178 161.032C257.824 156.697 257.333 155.333 255.506 153.479C252.507 150.507 249.917 149.717 243.073 149.662C240.374 149.662 237.947 149.553 237.674 149.444C237.293 149.308 238.383 148.817 241.492 147.672C247.436 145.49 247.954 145.381 252.152 145.191C257.715 144.918 260.032 145.654 264.068 149.035C265.267 150.044 267.04 151.244 268.021 151.707L269.793 152.552L275.028 152.47L280.263 152.389L281.981 153.261C286.698 155.633 289.397 160.732 287.707 164.058C286.235 166.921 281.817 168.394 279.473 166.785C276.773 164.958 276.61 162.177 279.036 159.532L279.882 158.578L279.064 159.069C276.31 160.759 275.383 162.886 276.201 165.831C276.637 167.358 278.627 169.375 280.591 170.275C282.09 170.929 282.526 171.011 284.353 170.902C286.943 170.738 289.07 169.757 290.815 167.903C292.833 165.749 293.215 164.576 293.215 160.732C293.215 157.733 293.133 157.269 292.342 155.197C291.197 152.171 289.834 149.962 287.543 147.563C281.163 140.828 272.547 138.783 260.387 141.073C259.269 141.292 257.851 141.537 257.251 141.619C256.161 141.755 256.161 141.755 257.033 141.455C257.524 141.292 257.987 140.964 258.069 140.719C258.151 140.474 259.16 139.792 260.305 139.219C263.331 137.747 266.358 135.893 271.92 132.158L276.746 128.913L279.009 130.031C282.499 131.803 284.49 132.267 288.907 132.43C295.232 132.676 297.304 132.049 303.33 128.013C309.492 123.923 313.882 121.769 318.981 120.324C321.271 119.67 322.089 119.588 325.552 119.588C328.551 119.561 329.941 119.697 331.277 120.079C333.84 120.788 337.03 122.342 340.084 124.414C342.62 126.105 342.783 126.186 342.62 125.478C342.293 124.06 340.302 120.352 338.993 118.743C335.04 113.89 328.796 110.645 320.916 109.445L317.808 108.982L320.507 108.518C322.007 108.246 324.216 107.755 325.415 107.4C327.351 106.828 328.087 106.746 332.232 106.773C337.548 106.801 340.52 107.264 343.956 108.6L346.137 109.473L344.392 109.636C342.783 109.8 342.538 109.909 341.556 110.945C340.52 112.063 340.493 112.172 340.602 113.672C340.738 115.498 341.447 116.698 342.838 117.352C344.119 117.952 345.946 117.898 347.037 117.243C348.755 116.207 349.491 113.317 348.564 111.354C347.146 108.409 341.447 106.446 333.186 106.092L329.232 105.928L330.732 105.056C335.394 102.356 339.484 98.1846 342.674 92.9224C344.528 89.8686 346.819 84.5518 346.819 83.3249C346.819 82.4524 334.931 82.3978 331.141 83.2703C327.133 84.1701 322.089 86.215 319.771 87.8237C319.39 88.1236 318.981 88.3417 318.926 88.3417C318.844 88.3417 319.417 86.9512 320.235 85.2607C323.425 78.6079 324.216 72.7458 322.252 70.2374C320.971 68.6287 318.053 67.9471 316.281 68.8468C314.345 69.8557 313.555 72.9367 314.809 74.6271C316.936 77.49 320.644 77.2719 322.225 74.1636L322.852 72.9367L322.716 74.9816C322.525 77.8445 321.434 81.3617 319.58 85.2335C318.217 88.0691 317.645 88.8871 315.6 91.0956C314.318 92.5134 312.628 94.5856 311.864 95.7035C311.101 96.8214 310.555 97.503 310.637 97.2031C310.719 96.9032 311.155 95.4035 311.619 93.9039C313.991 85.8333 313.2 78.3625 309.328 72.5277C308.129 70.7281 305.784 68.2197 305.511 68.4651C305.457 68.5469 305.566 69.6375 305.784 70.919C306.029 72.1732 306.22 74.7907 306.247 76.7539C306.302 80.8164 305.784 83.1885 304.175 86.3786C301.558 91.5864 295.641 97.0395 287.789 101.457C282.935 104.183 281.436 105.246 279.991 106.855C277.51 109.636 275.492 113.726 274.647 117.625C274.047 120.515 274.265 125.45 275.083 127.004C275.819 128.422 276.364 127.877 270.066 132.076C261.641 137.693 251.416 142.982 244.982 145.054C243.946 145.381 242.882 145.818 242.664 146.009C242.228 146.363 237.184 148.108 237.02 147.972C236.993 147.917 238.302 146.908 239.992 145.709C262.295 129.922 275.546 110.809 279.5 88.6962C279.963 86.106 280.1 83.9792 280.209 77.7627C280.291 73.5365 280.454 70.0738 280.563 70.0738C280.672 70.0738 281.163 69.7193 281.627 69.2831C282.281 68.6832 282.472 68.247 282.472 67.5108C282.472 66.5565 282.445 66.5292 281.49 66.5292C280.754 66.5292 280.318 66.7201 279.718 67.3745C279.282 67.838 278.927 68.3288 278.927 68.4378C278.927 68.5469 275.465 68.7105 271.238 68.7923C263.031 68.9286 260.387 69.2285 254.443 70.7281C235.248 75.6087 217.225 89.1052 203.211 109.118C202.066 110.754 201.084 112.036 201.057 111.981C200.893 111.817 202.638 106.773 202.993 106.337C203.156 106.119 203.647 104.892 204.083 103.61C206.237 97.094 211.309 87.3329 216.925 78.9351C221.124 72.6367 220.579 73.1821 221.997 73.9455C223.06 74.5181 223.524 74.5726 227.123 74.5726C231.567 74.5726 233.421 74.1636 237.075 72.3368C241.11 70.3192 243.591 68.1106 245.391 64.9206C249.835 57.0953 251.825 54.2052 255.179 50.6606C258.969 46.6526 262.295 44.4986 266.576 43.2989C268.321 42.8354 269.357 42.7263 272.247 42.7536C274.21 42.7809 276.828 42.9717 278.082 43.2171C279.364 43.4352 280.454 43.5443 280.536 43.4898C280.781 43.2171 278.273 40.8723 276.473 39.6726C270.611 35.7736 263.195 34.9829 255.07 37.4095C253.57 37.8458 252.098 38.282 251.798 38.3638C251.498 38.4456 252.18 37.9003 253.298 37.1369C254.416 36.3735 256.488 34.683 257.906 33.4015C260.114 31.3566 260.932 30.784 263.768 29.4207C267.639 27.5667 270.993 26.5306 273.938 26.3124L276.064 26.1488L274.837 26.776C271.729 28.3574 271.511 32.0655 274.374 34.1922C276.064 35.4464 279.145 34.6557 280.154 32.7199C281.054 30.9476 280.372 28.0302 278.764 26.7487C276.255 24.7856 270.393 25.5763 263.74 28.7663C262.05 29.5843 260.659 30.1569 260.659 30.0751C260.659 30.0206 260.877 29.6116 261.177 29.2299C262.786 26.9123 264.831 21.8409 265.731 17.8601C266.222 15.597 266.549 7.88087 266.249 4.49994L266.058 2.12782L265.131 2.29141C264.64 2.40048 263.168 2.89127 261.886 3.40932C254.061 6.57213 247.599 11.9435 243.864 18.4054L243.073 19.7687L242.909 15.8152C242.555 7.55368 240.592 1.85516 237.647 0.437363C236.42 -0.135223 234.893 -0.107956 233.476 0.546417ZM245.118 35.5282C245.118 35.5827 244.709 37.1369 244.191 39.0182C241.955 47.1706 237.211 56.4955 232.303 62.4394C230.504 64.5934 224.641 70.6464 223.251 71.737L222.269 72.5277L223.224 69.4739C225.432 62.3576 228.268 55.732 230.94 51.3968C233.012 48.0431 236.148 44.1987 240.428 39.7544C244.027 36.0735 245.118 35.092 245.118 35.5282ZM227.913 47.6887C227.477 52.951 226.577 56.7136 224.669 61.1306C223.66 63.421 220.224 69.3649 219.734 69.6921C219.188 70.0192 219.734 60.0127 220.443 56.4955C221.261 52.4056 223.415 47.3615 226.386 42.59L227.804 40.327L227.995 42.3174C228.104 43.408 228.077 45.8346 227.913 47.6887ZM249.208 53.3872C249.208 53.7962 246.263 58.3496 244.845 60.0946C242.937 62.5212 238.465 66.7201 236.257 68.1924C234.484 69.3649 229.168 72.1732 227.504 72.8003C226.577 73.1548 226.686 72.9094 228.513 70.1556C232.003 64.9206 235.902 60.6944 239.392 58.3223C241.028 57.2317 248.526 53.1963 249.017 53.1691C249.126 53.1691 249.208 53.2781 249.208 53.3872ZM278.573 77.49C278.409 84.9335 278.055 88.0418 276.719 93.5222C274.129 104.019 268.594 114.844 260.823 124.605C257.796 128.422 249.917 136.384 245.881 139.765C242.882 142.246 235.984 147.235 233.53 148.708C232.194 149.499 230.94 149.908 227.123 150.753C219.734 152.416 211.499 153.561 207.628 153.479L206.264 153.452L207.491 153.207C216.816 151.271 223.442 148.681 229.604 144.563C241.492 136.575 247.981 124.987 248.581 110.754L248.744 106.582L249.808 105.165C250.98 103.61 251.934 101.729 252.589 99.657C253.161 97.912 253.543 95.7307 253.325 95.5944C253.025 95.4308 249.644 96.2215 248.117 96.8214C246.372 97.5303 245.145 98.2119 243.564 99.3843C242.446 100.257 242.391 100.257 238.247 100.42C223.987 101.02 212.481 107.482 204.465 119.397C200.73 124.932 197.676 132.348 196.231 139.465C195.631 142.273 195.549 142.546 195.522 141.373C195.44 137.42 196.749 128.313 198.357 121.333C199.094 118.116 199.557 116.725 200.293 115.471C201.766 113.017 206.755 106.119 209.236 103.12C212.345 99.3843 220.197 91.5864 223.578 88.8325C235.002 79.535 247.49 73.5365 259.651 71.4098C264.422 70.5646 266.358 70.4282 272.902 70.3737L278.736 70.3464L278.573 77.49ZM189.878 95.0764C193.75 97.1213 196.858 100.884 198.057 104.947C198.766 107.346 198.521 107.455 197.676 105.165C196.476 101.947 194.295 98.839 192.032 97.1758C191.023 96.4124 189.605 95.4581 188.896 95.0491C187.669 94.3402 187.369 94.0675 187.751 94.0675C187.833 94.0675 188.787 94.531 189.878 95.0764ZM250.026 99.3025C250.026 100.202 249.371 104.319 249.208 104.51C249.099 104.619 248.69 103.992 248.308 103.065C247.626 101.511 247.49 101.375 245.936 100.693C245.036 100.311 244.355 99.9024 244.436 99.8206C244.627 99.657 248.035 99.0571 249.29 99.0026C249.726 99.0026 250.026 99.1117 250.026 99.3025ZM295.832 99.9296C295.832 100.366 292.26 107.1 290.979 109.064C288.47 112.963 284.435 116.753 278.846 120.488C276.092 122.315 275.846 122.424 276.201 121.497C276.828 119.834 279.636 114.517 280.809 112.744C282.281 110.536 286.48 106.064 288.907 104.156C290.652 102.738 295.205 99.7933 295.614 99.7933C295.723 99.7933 295.832 99.8478 295.832 99.9296ZM240.946 102.956C240.865 103.774 240.919 105.192 241.083 106.064L241.355 107.646L242.937 107.918C243.809 108.082 245.227 108.137 246.1 108.055L247.654 107.891L247.463 110.999C247.136 116.671 246.018 121.497 244 126.159C238.165 139.438 224.369 149.062 206.564 152.171C203.62 152.689 196.094 153.37 195.849 153.152C195.631 152.907 196.312 145.381 196.831 142.437C199.884 124.987 209.127 111.408 222.078 105.355C227.259 102.956 233.257 101.593 239.229 101.457L241.11 101.429L240.946 102.956ZM245.963 103.038C246.072 103.12 246.236 103.938 246.318 104.837L246.481 106.473L245.554 105.437C245.036 104.865 244.136 103.965 243.564 103.447L242.528 102.52L244.164 102.683C245.063 102.765 245.881 102.929 245.963 103.038ZM313.555 104.129C313.555 104.51 305.675 112.063 303.194 114.053C296.977 119.043 289.943 122.533 279.527 125.777L276.473 126.732L277.264 125.75C278.355 124.36 284.408 118.498 286.562 116.698C292.478 111.817 301.721 107.1 309.874 104.837C313.582 103.801 313.555 103.801 313.555 104.129ZM307.829 121.06C308.783 121.088 308.783 121.088 306.875 122.287C302.185 125.287 296.568 127.741 292.451 128.559C288.797 129.295 278.982 129.813 279.336 129.24C279.745 128.586 286.616 124.796 289.234 123.76C294.114 121.851 300.794 120.679 305.102 120.951C306.084 121.006 307.311 121.06 307.829 121.06ZM244.055 150.944C248.144 152.143 251.88 155.252 253.925 159.178C255.124 161.441 255.124 162.15 253.952 160.132C251.198 155.415 248.499 153.07 243.755 151.298C241.519 150.453 241.682 150.262 244.055 150.944Z" fill="#4B87E1"/>
<path d="M251.798 79.2076C243.537 80.3801 234.648 83.4611 227.668 87.5782C224.996 89.1596 212.645 98.948 214.853 97.7483C215.071 97.6119 216.298 96.8212 217.58 95.976C228.84 88.478 239.174 84.3881 252.752 82.0705C255.615 81.5798 257.006 81.498 261.532 81.5798C264.477 81.6343 266.985 81.7706 267.121 81.8797C267.23 82.016 267.394 84.5244 267.421 87.4964C267.503 92.2952 267.448 93.2494 266.821 96.794C264.367 110.509 260.305 120.624 252.725 131.885C251.962 133.003 251.389 133.957 251.444 134.039C251.716 134.284 260.114 123.569 261.45 121.279C265.676 114.053 268.675 105.328 269.793 96.9576C270.175 94.1492 270.23 92.1316 270.148 86.8693C270.066 83.243 269.93 80.0802 269.821 79.8348C269.712 79.5894 269.412 79.2894 269.166 79.1804C268.239 78.7987 254.661 78.7987 251.798 79.2076Z" fill="#4B87E1"/>
<path d="M212.536 126.05C210.082 126.704 208.282 127.849 205.828 130.303C202.066 134.093 200.593 137.556 199.066 146.281C198.657 148.599 198.357 150.562 198.412 150.589C198.548 150.753 205.692 149.444 208.446 148.735C210 148.353 212.29 147.508 213.735 146.799C215.889 145.736 216.734 145.109 218.67 143.173C223.087 138.756 224.096 135.048 222.678 128.286L222.351 126.65L220.715 126.295C218.207 125.777 214.117 125.641 212.536 126.05ZM215.944 133.221C215.944 133.684 214.362 137.283 213.408 138.919C212.099 141.21 208.309 145.054 206.046 146.39C204.628 147.235 202.229 148.271 200.73 148.735C200.13 148.899 200.102 148.871 200.266 148.271C201.275 144.945 202.911 142.109 205.392 139.437C207.6 137.065 210.218 135.266 213.299 133.984C215.589 133.057 215.944 132.948 215.944 133.221Z" fill="#4B87E1"/>
<path d="M211.772 135.838C208.282 137.665 204.629 141.291 202.229 145.272C200.593 147.999 200.402 148.49 201.111 148.217C203.156 147.453 206.264 145.19 209.018 142.464C211.445 140.037 212.236 139.056 213.163 137.229C213.79 136.029 214.308 134.939 214.308 134.857C214.308 134.557 213.899 134.72 211.772 135.838Z" fill="#4B87E1"/>
<path d="M157.432 30.6748C154.269 31.3564 152.033 32.7469 148.734 36.1006C144.371 40.4631 141.399 45.1801 139.245 50.9876C136.274 58.9765 135.755 72.2003 137.964 81.7978C138.646 84.6607 140.391 90.0048 140.745 90.3865C140.936 90.5773 140.99 90.441 140.854 89.9775C140.418 88.2325 139.327 81.9341 139.027 79.4802C138.564 75.6085 138.646 67.8378 139.164 64.2115C140.118 57.695 142.408 51.533 145.68 46.6251C148.87 41.8537 152.251 39.018 156.477 37.5184C158.468 36.8368 159.231 36.7005 161.412 36.7005C163.566 36.7005 164.221 36.8095 165.311 37.3276C167.302 38.3091 168.829 40.4358 169.21 42.7807C169.592 45.1528 167.82 47.7158 165.802 47.7158C164.493 47.7158 163.73 47.1432 162.912 45.589L162.258 44.3076L162.23 45.3982C162.23 46.8705 163.212 48.7791 164.384 49.5426C165.066 50.0061 165.693 50.1697 166.893 50.1697C169.101 50.1697 170.437 49.1336 171.91 46.2434C172.946 44.1712 173 44.0076 173 41.4719C173 39.0453 172.919 38.6908 172.101 37.0276C170.519 33.8103 167.384 31.52 163.457 30.6748C161.167 30.184 159.64 30.184 157.432 30.6748Z" fill="#4B87E1"/>
<path d="M185.434 30.702C181.616 31.52 178.454 33.8648 176.899 37.0276C176.081 38.6908 176 39.0453 176 41.4719C176 44.0076 176.054 44.1712 177.09 46.2434C178.563 49.1336 179.899 50.1697 182.107 50.1697C183.307 50.1697 183.934 50.0061 184.616 49.5426C185.788 48.7791 186.77 46.8705 186.77 45.3982L186.742 44.3076L186.088 45.589C185.27 47.1432 184.507 47.7158 183.198 47.7158C181.18 47.7158 179.408 45.1528 179.79 42.7807C180.171 40.4358 181.698 38.3091 183.689 37.3276C184.779 36.8095 185.434 36.7005 187.588 36.7005C194.513 36.7005 200.348 41.0084 205.119 49.6244C207.301 53.6051 209.1 59.1946 209.836 64.2933C210.382 68.0832 210.436 75.4994 209.973 79.4802C209.673 81.9341 208.582 88.2052 208.146 89.9775C208.009 90.441 208.064 90.5773 208.255 90.3865C208.609 90.0048 210.354 84.6607 211.036 81.7978C212.399 75.9357 212.754 68.4104 211.99 61.2395C211.472 56.4135 210.654 53.0326 209.018 49.1608C206.701 43.6805 203.838 39.4543 199.775 35.528C195.14 31.0565 190.696 29.5569 185.434 30.702Z" fill="#4B87E1"/>
<path d="M166.893 125.995C167.029 126.268 167.247 126.568 167.411 126.65C167.547 126.732 168.42 128.04 169.347 129.513C171.037 132.294 173.573 134.966 174.5 134.966C175.427 134.966 177.963 132.294 179.653 129.513C180.58 128.04 181.453 126.732 181.589 126.65C181.753 126.568 181.971 126.268 182.107 125.995C182.352 125.532 182.162 125.505 178.644 125.586C176.599 125.641 174.718 125.668 174.5 125.668C174.282 125.668 172.401 125.641 170.356 125.586C166.838 125.505 166.647 125.532 166.893 125.995ZM175.4 130.467C174.991 130.985 174.582 131.421 174.5 131.421C174.418 131.421 174.009 130.985 173.6 130.467L172.837 129.513H174.5H176.163L175.4 130.467Z" fill="#4B87E1"/>
<path d="M61.893 136.902C50.9594 137.883 41.0893 142.764 34.2456 150.507C32.3916 152.607 30.8919 155.824 30.483 158.578C29.665 164.167 32.4188 169.839 37.0267 172.102C38.6899 172.92 39.0444 173.001 41.471 173.001C44.0067 173.001 44.1703 172.947 46.2425 171.911C49.1327 170.438 50.1687 169.102 50.1687 166.894C50.1687 165.694 50.0052 165.067 49.5416 164.386C48.7782 163.213 46.8696 162.232 45.3973 162.232L44.3066 162.259L45.5881 162.913C47.1423 163.731 47.7148 164.495 47.7148 165.803C47.7148 167.821 45.1519 169.593 42.7798 169.212C40.4349 168.83 38.3082 167.303 37.3266 165.313C36.8086 164.222 36.6995 163.568 36.6995 161.414C36.6995 154.488 41.0075 148.653 49.6234 143.882C53.5224 141.728 59.0301 139.956 64.1015 139.192C67.8096 138.62 75.444 138.538 79.4793 139.028C81.9332 139.328 88.2316 140.419 89.9766 140.855C91.5034 141.264 89.9766 140.446 87.659 139.656C80.0519 137.038 71.136 136.084 61.893 136.902Z" fill="#4B87E1"/>
<path d="M272.656 137.038C271.075 137.229 268.621 137.665 267.203 137.992C264.286 138.647 259.023 140.337 258.614 140.773C258.424 140.937 258.56 140.992 259.023 140.855C260.741 140.419 267.067 139.328 269.521 139.028C273.365 138.565 281.436 138.647 284.926 139.165C296.023 140.855 306.084 146.581 310.228 153.507C310.528 154.025 311.128 155.442 311.537 156.642C312.546 159.614 312.6 163.349 311.673 165.313C310.692 167.303 308.565 168.83 306.22 169.212C303.848 169.593 301.285 167.821 301.285 165.803C301.285 164.495 301.858 163.731 303.412 162.913L304.693 162.259L303.603 162.232C302.13 162.232 300.222 163.213 299.458 164.386C298.995 165.067 298.831 165.694 298.831 166.894C298.831 169.102 299.867 170.438 302.757 171.911C304.83 172.947 304.993 173.001 307.529 173.001C309.956 173.001 310.31 172.92 311.973 172.102C315.327 170.466 317.563 167.303 318.381 163.05C319.008 159.941 318.626 157.242 317.072 154.052C316.118 152.061 315.572 151.353 312.928 148.708C311.237 147.045 308.947 145.054 307.802 144.291C302.948 141.046 297.522 138.701 292.696 137.72C287.052 136.602 278.382 136.302 272.656 137.038Z" fill="#4B87E1"/>
<path d="M173.491 137.474C173.191 137.829 172.673 138.62 172.346 139.247C171.719 140.501 170.846 141.237 170.028 141.237C169.21 141.237 169.81 141.646 171.337 142.164C173.655 142.927 178.099 142.546 179.271 141.482C179.408 141.319 179.299 141.237 178.972 141.237C178.154 141.237 177.281 140.501 176.654 139.247C175.918 137.802 175.073 136.875 174.5 136.875C174.255 136.875 173.791 137.147 173.491 137.474Z" fill="#4B87E1"/>
<path d="M159.449 147.781C157.323 148.163 155.605 150.207 155.605 152.334C155.605 155.006 159.449 157.651 160.949 156.015C161.603 155.306 161.549 155.197 160.404 155.088C159.422 155.006 159.368 154.952 159.286 154.025C159.204 153.207 159.34 152.907 159.94 152.443C160.922 151.68 161.603 151.707 163.103 152.661C165.448 154.161 166.566 157.378 165.775 160.296L165.448 161.495L164.412 159.832C163.267 158.033 162.53 157.433 161.194 157.16C160.376 156.997 160.158 157.106 158.686 158.605C157.595 159.696 157.05 160.459 157.05 160.896C157.05 162.013 158.059 163.295 159.831 164.386L161.494 165.449L160.295 165.776C157.377 166.567 154.16 165.449 152.66 163.104C151.706 161.604 151.679 160.923 152.442 159.941C152.906 159.341 153.206 159.205 154.024 159.287C154.951 159.369 155.005 159.423 155.087 160.378C155.196 161.523 155.387 161.659 156.041 160.923C157.568 159.26 154.978 155.606 152.306 155.606C150.806 155.606 149.525 156.342 148.489 157.787C147.807 158.796 147.698 159.151 147.725 160.814C147.752 166.512 152.442 170.193 159.64 170.166C162.258 170.166 163.73 169.92 166.62 168.993L168.42 168.421L168.992 166.621C169.919 163.731 170.165 162.259 170.165 159.641C170.192 155.715 169.129 152.58 167.084 150.344C165.339 148.435 161.958 147.317 159.449 147.781Z" fill="#4B87E1"/>
<path d="M186.742 147.781C181.862 148.599 178.808 153.152 178.835 159.641C178.835 162.259 179.081 163.731 180.008 166.621L180.58 168.421L182.38 168.993C185.27 169.92 186.742 170.166 189.36 170.166C196.558 170.193 201.248 166.512 201.275 160.814C201.302 159.151 201.193 158.796 200.511 157.787C198.903 155.524 196.422 154.924 194.54 156.342C192.632 157.787 191.923 159.996 192.986 160.95C193.695 161.604 193.804 161.55 193.913 160.378C193.995 159.423 194.049 159.369 194.976 159.287C195.794 159.205 196.094 159.341 196.558 159.941C197.321 160.923 197.294 161.604 196.34 163.104C194.84 165.449 191.623 166.567 188.705 165.776L187.506 165.449L189.169 164.413C190.968 163.268 191.568 162.531 191.841 161.195C192.005 160.378 191.895 160.159 190.369 158.633C188.842 157.106 188.624 156.997 187.806 157.16C186.47 157.433 185.733 158.033 184.588 159.832L183.552 161.495L183.225 160.296C182.434 157.378 183.552 154.161 185.897 152.661C187.397 151.707 188.078 151.68 189.06 152.443C189.66 152.907 189.796 153.207 189.714 154.025C189.632 154.952 189.578 155.006 188.624 155.088C187.478 155.197 187.342 155.388 188.078 156.042C190.069 157.842 194.104 154.243 193.313 151.353C192.577 148.626 190.041 147.235 186.742 147.781Z" fill="#4B87E1"/>
<path d="M173.191 161.223C171.937 165.258 170.383 169.457 169.919 169.92C169.456 170.384 165.257 171.938 161.222 173.192C159.068 173.847 157.323 174.419 157.323 174.501C157.323 174.583 159.068 175.155 161.222 175.81C165.257 177.064 169.456 178.618 169.919 179.082C170.383 179.545 171.937 183.744 173.191 187.779C173.846 189.933 174.418 191.678 174.5 191.678C174.582 191.678 175.154 189.933 175.809 187.779C177.063 183.744 178.617 179.545 179.081 179.082C179.544 178.618 183.743 177.064 187.778 175.81C189.932 175.155 191.677 174.583 191.677 174.501C191.677 174.419 189.932 173.847 187.778 173.192C183.743 171.938 179.544 170.384 179.081 169.92C178.617 169.457 177.063 165.258 175.809 161.223C175.154 159.069 174.582 157.324 174.5 157.324C174.418 157.324 173.846 159.069 173.191 161.223ZM175.045 161.741C175.236 162.532 175.454 163.377 175.536 163.595C175.645 163.895 175.509 163.868 175.1 163.486C174.5 162.968 174.5 162.968 173.9 163.486C173.491 163.868 173.355 163.895 173.464 163.595C173.546 163.377 173.764 162.532 173.955 161.741C174.173 160.977 174.418 160.323 174.5 160.323C174.582 160.323 174.827 160.977 175.045 161.741ZM175.591 165.476C176.054 166.076 176.845 167.494 177.363 168.612L178.317 170.657L180.58 171.72C181.807 172.32 183.252 173.192 183.77 173.656L184.725 174.501L183.77 175.346C183.252 175.81 181.807 176.682 180.58 177.282L178.344 178.346L177.281 180.581C176.681 181.808 175.809 183.253 175.345 183.771L174.5 184.726L173.655 183.771C173.191 183.253 172.319 181.808 171.719 180.581L170.656 178.346L168.42 177.282C167.193 176.682 165.748 175.81 165.23 175.346L164.275 174.501L165.23 173.656C165.748 173.192 167.193 172.32 168.42 171.72L170.683 170.657L171.637 168.612C172.564 166.594 174.064 164.413 174.5 164.413C174.636 164.413 175.1 164.904 175.591 165.476ZM163.457 173.956C162.994 174.474 162.994 174.528 163.485 175.101C163.866 175.51 163.894 175.646 163.594 175.537C163.376 175.455 162.53 175.237 161.767 175.046C160.976 174.828 160.322 174.583 160.322 174.501C160.322 174.365 163.021 173.52 163.703 173.438C163.839 173.41 163.73 173.656 163.457 173.956ZM187.26 173.956C188.024 174.174 188.678 174.419 188.678 174.501C188.678 174.583 188.024 174.828 187.26 175.046C186.47 175.237 185.624 175.455 185.406 175.537C185.106 175.646 185.134 175.51 185.515 175.101C186.033 174.501 186.033 174.501 185.515 173.901C185.134 173.492 185.106 173.356 185.406 173.465C185.624 173.547 186.47 173.765 187.26 173.956ZM175.1 185.516C175.509 185.135 175.645 185.107 175.536 185.407C175.454 185.625 175.236 186.471 175.045 187.234C174.827 188.025 174.582 188.679 174.5 188.679C174.418 188.679 174.173 188.025 173.955 187.234C173.764 186.471 173.546 185.625 173.464 185.407C173.355 185.107 173.491 185.135 173.9 185.516C174.5 186.034 174.5 186.034 175.1 185.516Z" fill="#4B87E1"/>
<path d="M125.585 170.357C125.64 172.402 125.667 174.283 125.667 174.501C125.667 174.719 125.64 176.6 125.585 178.645C125.504 182.163 125.531 182.354 125.994 182.108C126.267 181.972 126.567 181.754 126.649 181.59C126.731 181.454 128.039 180.581 129.512 179.654C132.293 177.964 134.965 175.428 134.965 174.501C134.965 173.574 132.293 171.038 129.512 169.348C128.039 168.421 126.731 167.548 126.649 167.412C126.567 167.248 126.267 167.03 125.994 166.894C125.531 166.649 125.504 166.839 125.585 170.357ZM131.42 174.501C131.42 174.583 130.984 174.992 130.466 175.401L129.512 176.164V174.501V172.838L130.466 173.601C130.984 174.01 131.42 174.419 131.42 174.501Z" fill="#4B87E1"/>
<path d="M222.324 167.439C221.751 167.903 220.279 168.884 219.052 169.62C216.707 171.011 214.035 173.629 214.035 174.501C214.035 175.428 216.707 177.964 219.488 179.654C220.961 180.581 222.269 181.454 222.351 181.59C222.433 181.754 222.733 181.972 223.006 182.108C223.469 182.354 223.496 182.163 223.415 178.645C223.305 174.119 223.305 174.883 223.415 170.329C223.442 168.284 223.469 166.594 223.442 166.594C223.415 166.594 222.896 166.976 222.324 167.439ZM219.434 175.292L219.352 176.082L218.398 175.292L217.471 174.501L218.398 173.71L219.352 172.92L219.434 173.71C219.488 174.147 219.488 174.855 219.434 175.292Z" fill="#4B87E1"/>
<path d="M141.1 170.466C140.936 170.984 140.472 171.584 139.954 171.911C139.464 172.211 138.673 172.701 138.209 173.001C137.037 173.738 136.655 174.365 137.037 174.964C137.31 175.428 137.828 175.81 139.927 177.091C140.472 177.418 140.963 178.018 141.154 178.591C141.481 179.6 141.454 179.627 142.19 177.527C142.736 175.973 142.708 173.029 142.163 171.338C141.563 169.566 141.4 169.43 141.1 170.466Z" fill="#4B87E1"/>
<path d="M207.382 169.866C206.646 171.829 206.401 172.92 206.401 174.501C206.401 176.083 206.646 177.173 207.382 179.136C207.491 179.409 207.655 179.245 207.846 178.591C208.037 178.018 208.527 177.419 209.073 177.091C211.172 175.81 211.69 175.428 211.963 174.965C212.345 174.365 211.963 173.738 210.791 173.001C210.327 172.702 209.536 172.211 209.046 171.911C208.527 171.584 208.037 170.957 207.846 170.411C207.655 169.757 207.491 169.593 207.382 169.866Z" fill="#4B87E1"/>
<path d="M38.5263 176.246C35.7179 177.146 33.1277 179.463 31.7644 182.245C29.8286 186.198 29.8831 190.724 31.928 194.95C32.8823 196.941 33.4276 197.65 36.0724 200.267C40.653 204.821 46.0516 208.12 52.2136 210.192C59.9571 212.755 72.7719 213.137 81.7968 211.037C84.6597 210.355 90.0038 208.61 90.3855 208.256C90.5764 208.065 90.44 208.011 89.9765 208.147C88.2315 208.583 81.9332 209.674 79.4793 209.974C75.9893 210.383 67.8641 210.383 65.0285 209.974C56.1944 208.665 49.378 205.802 43.4341 200.894C40.4076 198.386 38.6899 195.932 37.4629 192.36C36.4541 189.388 36.3996 185.653 37.3266 183.69C38.3082 181.699 40.4349 180.172 42.7797 179.791C45.1518 179.409 47.7148 181.181 47.7148 183.199C47.7148 184.508 47.1422 185.271 45.5881 186.089L44.3066 186.743L45.3972 186.771C46.8696 186.771 48.7782 185.789 49.5416 184.617C50.0051 183.935 50.1687 183.308 50.1687 182.108C50.1687 179.9 49.1326 178.564 46.2697 177.119C44.4157 176.164 43.9249 176.028 41.9345 175.946C40.5167 175.892 39.2352 176.001 38.5263 176.246Z" fill="#4B87E1"/>
<path d="M304.421 176.328C302.267 177.119 300.522 178.264 299.649 179.463C298.586 180.936 298.504 183.199 299.458 184.617C300.222 185.789 302.13 186.771 303.603 186.771L304.693 186.743L303.412 186.089C301.858 185.271 301.285 184.508 301.285 183.199C301.285 181.181 303.848 179.409 306.22 179.791C308.565 180.172 310.692 181.699 311.673 183.69C312.191 184.78 312.3 185.435 312.3 187.589C312.273 192.687 310.092 197.05 305.648 200.812C299.84 205.693 292.833 208.665 283.971 209.974C281.109 210.383 272.983 210.383 269.521 209.974C267.067 209.674 260.768 208.583 259.023 208.147C258.56 208.011 258.424 208.065 258.614 208.256C258.996 208.61 264.34 210.355 267.203 211.037C276.228 213.137 289.043 212.755 296.786 210.192C302.948 208.12 308.347 204.821 312.928 200.267C315.572 197.65 316.118 196.941 317.072 194.95C317.863 193.314 318.299 191.978 318.517 190.424C319.335 184.862 316.581 179.164 312 176.901C309.737 175.81 306.602 175.565 304.421 176.328Z" fill="#4B87E1"/>
<path d="M62.1929 178.482C59.6572 179.382 57.4486 181.345 56.358 183.717C55.8672 184.807 55.7854 185.516 55.7854 188.27C55.7854 191.269 55.84 191.733 56.6307 193.805C57.8031 196.859 59.1936 199.04 61.4567 201.439C66.8553 207.111 73.9443 209.483 83.1056 208.638C85.0142 208.474 87.4408 208.147 88.4769 207.956C89.5403 207.738 90.9308 207.492 91.6125 207.411C92.7576 207.274 92.7849 207.274 91.9669 207.547C91.4761 207.711 91.0126 208.038 90.9308 208.31C90.849 208.556 90.0583 209.101 89.1858 209.51C86.1866 210.901 79.2339 215.209 73.5626 219.217L72.3084 220.116L69.7454 218.862C65.8465 216.954 64.4286 216.654 59.1664 216.626C52.8135 216.626 51.6138 217.008 45.6699 220.989C39.6442 224.997 34.9272 227.287 29.5832 228.814C26.6658 229.632 20.4492 229.687 17.7226 228.923C15.1597 228.214 11.9696 226.66 8.91583 224.588C6.38013 222.898 6.21653 222.816 6.38013 223.525C6.70732 224.942 8.69771 228.651 10.0065 230.259C14.0418 235.249 20.5583 238.521 28.7652 239.666L31.2191 240.02L28.4925 240.484C26.9929 240.757 24.7844 241.247 23.5847 241.602C21.6489 242.174 20.9127 242.256 16.7683 242.229C11.4515 242.202 8.47958 241.738 5.04411 240.402L2.86286 239.53L4.60786 239.366C6.21653 239.202 6.46192 239.093 7.41622 238.084C8.31599 237.103 8.45231 236.776 8.45231 235.685C8.45231 233.122 6.97997 231.486 4.4988 231.268C2.12669 231.077 0.490753 232.359 0.109034 234.704C-0.190888 236.53 0.190831 237.675 1.47232 238.984C3.68083 241.193 8.8613 242.611 15.814 242.91L19.7675 243.074L18.6497 243.674C13.9327 246.182 8.67044 251.69 5.48036 257.47C4.25341 259.733 2.56294 263.796 2.29028 265.132L2.12669 266.059L4.4988 266.25C7.87974 266.55 15.5959 266.223 17.859 265.732C21.8397 264.832 26.9111 262.787 29.2287 261.178C29.6104 260.879 30.0194 260.66 30.074 260.66C30.1558 260.66 29.5832 262.051 28.7652 263.714C25.5751 270.394 24.7844 276.256 26.7475 278.765C28.029 280.373 30.9465 281.055 32.7187 280.155C34.6546 279.147 35.4453 276.065 34.1911 274.375C32.0643 271.512 28.3562 271.73 26.7748 274.839L26.1477 276.065L26.284 274.021C26.4749 271.158 27.5655 267.64 29.4196 263.769C30.7829 260.933 31.3554 260.115 33.4004 257.907C34.6818 256.489 36.3723 254.417 37.1358 253.299C37.8992 252.181 38.4445 251.499 38.3627 251.799C38.2809 252.099 37.8174 253.626 37.3539 255.207C35.1726 262.596 35.7725 269.958 39.0171 275.466C40.135 277.347 43.1615 280.837 43.4614 280.537C43.5432 280.455 43.4341 279.365 43.216 278.083C42.9706 276.829 42.7797 274.184 42.7525 272.248C42.7252 269.358 42.8343 268.322 43.2978 266.577C44.4975 262.296 46.6515 258.97 50.6595 255.18C54.204 251.826 57.0942 249.836 64.9194 245.392C68.1095 243.592 70.318 241.111 72.3357 237.076C74.1625 233.422 74.5714 231.568 74.5714 227.124C74.5714 223.525 74.5169 223.061 73.9443 221.998C73.1809 220.58 72.6356 221.125 78.934 216.926C87.359 211.31 97.5836 206.02 104.018 203.948C105.082 203.621 106.118 203.184 106.336 202.994C106.772 202.639 111.816 200.894 111.98 201.03C112.007 201.085 110.698 202.094 109.008 203.294C86.6774 219.108 73.4536 238.166 69.5 260.306C69.0365 262.896 68.9002 265.023 68.7911 271.212C68.7093 275.466 68.5458 278.928 68.4367 278.928C68.3276 278.928 67.8368 279.283 67.3733 279.719C66.719 280.319 66.5281 280.755 66.5281 281.491C66.5281 282.337 66.6099 282.473 67.1825 282.473C68.3004 282.473 69.1729 282.009 69.6909 281.164L70.1544 280.346L77.8161 280.21C83.9781 280.101 86.1048 279.964 88.695 279.501C110.671 275.575 129.648 262.487 145.38 240.402C146.744 238.493 147.916 236.967 147.971 237.021C148.107 237.185 146.362 242.229 146.007 242.665C145.817 242.883 145.38 243.919 145.053 244.983C142.954 251.554 136.901 263.114 131.202 271.458C127.93 276.202 128.421 275.793 127.003 275.084C125.231 274.157 120.105 274.021 116.997 274.784C110.862 276.338 105.9 279.828 103.446 284.327C99.7104 291.089 97.1474 294.824 93.821 298.342C90.0038 302.377 86.6774 304.504 82.424 305.676C79.861 306.412 74.5442 306.439 70.9179 305.785C69.6364 305.567 68.5458 305.458 68.464 305.512C68.2731 305.73 70.0181 307.448 71.7904 308.784C77.4616 313.092 85.4777 314.101 93.93 311.593C95.4297 311.156 96.902 310.72 97.2019 310.638C97.5018 310.557 96.8202 311.102 95.7023 311.865C94.5844 312.629 92.5122 314.319 91.0944 315.601C88.8859 317.646 88.0679 318.218 85.2323 319.581C81.3606 321.435 78.0069 322.472 75.0622 322.69L72.9355 322.853L74.1625 322.226C77.2708 320.645 77.4889 316.937 74.626 314.81C72.9355 313.556 69.8545 314.346 68.8457 316.282C67.9459 318.055 68.6275 320.972 70.2362 322.253C72.7447 324.217 78.6068 323.426 85.2868 320.236C86.95 319.418 88.3406 318.845 88.3406 318.927C88.3406 318.982 88.0952 319.418 87.7953 319.854C87.4681 320.263 86.6229 321.899 85.8867 323.426C83.5418 328.388 82.6148 332.887 82.6148 339.349C82.6148 344.502 82.8329 346.82 83.3237 346.82C84.7415 346.82 91.667 343.63 94.6117 341.639C99.1105 338.586 102.655 334.877 105.054 330.733L105.927 329.233L106.091 333.187C106.445 341.448 108.408 347.147 111.353 348.565C113.316 349.492 116.206 348.756 117.242 347.038C117.897 345.947 117.951 344.12 117.351 342.839C116.697 341.448 115.497 340.74 113.67 340.603C112.171 340.494 112.062 340.521 110.944 341.558C109.908 342.539 109.799 342.784 109.635 344.393L109.471 346.138L108.599 343.957C107.236 340.467 106.772 337.549 106.772 332.096C106.772 327.816 106.827 327.107 107.399 325.307C107.754 324.217 108.244 322.063 108.517 320.536L108.981 317.782L109.335 320.236C110.48 328.443 113.752 334.959 118.742 338.995C120.35 340.303 124.059 342.294 125.476 342.621C126.185 342.784 126.103 342.621 124.413 340.085C122.341 337.031 120.787 333.841 120.078 331.278C119.314 328.579 119.369 322.363 120.187 319.336C121.523 314.374 123.949 309.439 128.012 303.331C132.02 297.333 132.674 295.26 132.456 288.908C132.293 284.572 131.638 281.955 129.839 278.601L128.885 276.802L132.156 271.921C135.619 266.768 137.882 263.06 139.355 260.033C139.845 259.024 140.472 258.152 140.718 258.07C140.963 257.988 141.29 257.525 141.454 257.034C141.754 256.162 141.754 256.162 141.618 257.252C141.536 257.852 141.29 259.188 141.1 260.251C138.891 271.539 140.718 280.373 146.498 286.454C150.479 290.653 155.087 292.997 159.94 293.297C163.403 293.515 165.693 292.834 167.738 290.953C169.756 289.098 170.737 287.054 170.901 284.354C171.01 282.527 170.928 282.091 170.274 280.592C169.374 278.628 167.356 276.638 165.829 276.202C162.885 275.384 160.758 276.311 159.068 279.065L158.577 279.883L159.531 279.037C162.176 276.611 164.957 276.774 166.811 279.474C168.392 281.819 166.92 286.236 164.057 287.708C160.731 289.398 155.632 286.699 153.26 281.982L152.388 280.264L152.469 275.029L152.551 269.794L151.706 268.022C151.215 267.041 150.015 265.268 149.034 264.069C145.653 260.006 144.917 257.716 145.189 252.126C145.38 247.846 145.489 247.437 147.671 241.493C148.816 238.384 149.307 237.294 149.443 237.675C149.552 237.948 149.661 240.375 149.661 243.074C149.715 249.918 150.506 252.508 153.478 255.507C155.332 257.334 156.75 257.852 161.031 258.207C162.667 258.343 164.63 258.534 165.366 258.615L166.757 258.806L166.266 254.907C165.72 250.436 165.502 249.672 164.412 248.145C163.185 246.482 161.14 245.283 157.568 244.192C155.687 243.619 153.969 242.883 153.26 242.392C151.897 241.411 150.67 239.557 150.043 237.566C149.579 236.121 149.606 236.094 150.452 232.904C153.587 221.452 154.651 213.164 154.542 201.767L154.46 194.541H145.735C134.31 194.541 128.939 195.25 117.706 198.14L112.825 199.395L111.407 198.958C109.444 198.331 107.59 197.077 106.609 195.741C106.118 195.032 105.382 193.314 104.809 191.433C103.718 187.861 102.519 185.816 100.856 184.589C99.3286 183.499 98.5652 183.281 94.0936 182.735L90.1947 182.244L90.3582 183.58C90.4673 184.317 90.6582 186.28 90.8218 187.97C91.1762 192.305 91.667 193.669 93.4938 195.523C96.493 198.495 99.0832 199.285 105.927 199.34C108.626 199.34 111.053 199.449 111.326 199.558C111.707 199.694 110.617 200.185 107.508 201.33C101.564 203.512 101.046 203.621 96.8475 203.812C91.2853 204.084 88.9677 203.348 84.9324 199.967C83.7327 198.958 81.9604 197.759 80.9789 197.295L79.2066 196.45L73.9716 196.532L68.7366 196.613L67.0189 195.741C62.3019 193.369 59.6026 188.27 61.2931 184.944C62.7654 182.081 67.1825 180.609 69.5273 182.19C72.2266 184.044 72.3902 186.825 69.9636 189.47L69.1183 190.424L69.9363 189.933C72.6901 188.243 73.6172 186.116 72.7992 183.199C72.3629 181.699 70.4816 179.736 68.573 178.836C66.6644 177.909 64.2105 177.8 62.1929 178.482ZM95.0479 188.897C97.7472 193.56 100.474 195.905 105.245 197.704C107.481 198.549 107.317 198.74 104.945 198.059C100.719 196.804 97.1201 193.751 94.9116 189.524C93.6574 187.125 93.7664 186.661 95.0479 188.897ZM139.464 196.232C132.429 197.677 125.013 200.676 119.56 204.357C107.481 212.455 101.019 223.906 100.419 238.248C100.256 242.392 100.256 242.447 99.3832 243.565C98.2107 245.146 97.5291 246.373 96.8202 248.118C96.3022 249.482 95.3479 253.326 95.5115 253.49C95.675 253.653 99.5195 252.699 100.883 252.181C102.655 251.472 103.855 250.79 105.491 249.563C106.636 248.691 106.772 248.664 109.308 248.664C123.731 248.636 136.355 241.793 144.562 229.605C148.679 223.443 151.27 216.817 153.206 207.492L153.451 206.265L153.478 207.629C153.56 211.5 152.415 219.735 150.752 227.124C149.525 232.55 149.416 232.768 144.862 239.148C140.909 244.71 138.346 247.737 132.784 253.326C119.178 266.986 104.673 274.92 87.9316 277.865C85.3959 278.301 83.0238 278.465 77.4616 278.574L70.2635 278.738L70.4271 271.539C70.5361 265.486 70.6725 263.714 71.2723 260.36C73.5354 247.409 79.3429 235.276 88.8314 223.579C91.5034 220.28 99.3286 212.4 102.928 209.401C105.9 206.92 111.625 202.721 114.734 200.785C116.697 199.531 117.406 199.258 120.596 198.522C128.857 196.613 135.892 195.577 140.827 195.55H142.736L139.464 196.232ZM153.233 196.232C153.206 198.004 152.633 203.948 152.251 206.129C150.015 219.571 143.581 231.623 134.938 238.575C128.039 244.11 120.541 246.891 110.998 247.464L107.89 247.655L108.054 246.101C108.135 245.228 108.081 243.81 107.917 242.938L107.645 241.356L106.063 241.084C105.191 240.92 103.773 240.866 102.9 240.947L101.346 241.111L101.537 238.003C102.11 228.46 104.836 221.043 110.317 214.2C118.387 204.139 133.029 197.186 148.461 196.041C153.124 195.714 153.233 195.714 153.233 196.232ZM69.6909 219.735C69.6091 219.871 68.0822 220.853 66.3372 221.916C61.7293 224.67 57.9394 226.197 53.0043 227.233C50.1687 227.833 44.5793 228.242 42.398 227.996L40.4894 227.778L42.4525 226.497C46.8968 223.634 52.9225 221.071 56.9851 220.335C60.5297 219.707 69.9908 219.244 69.6909 219.735ZM71.7631 223.225C70.6452 224.615 64.6195 230.477 62.4383 232.304C58.2393 235.794 51.4229 239.666 45.2609 242.12C42.1526 243.374 35.7179 245.228 35.4725 244.955C35.1999 244.683 43.8976 236.367 46.7878 234.185C52.6772 229.659 58.0212 227.015 67.6187 223.825C70.2362 222.952 72.4447 222.243 72.472 222.216C72.5265 222.216 72.1993 222.679 71.7631 223.225ZM72.7992 227.533C72.1175 229.278 69.3637 234.458 68.1095 236.339C66.3372 238.957 62.1383 243.319 59.3572 245.419C56.9579 247.246 53.4951 249.345 53.277 249.127C53.0589 248.909 56.358 242.502 58.0212 239.939C59.6572 237.403 62.7109 234.104 65.3557 231.977C67.3188 230.423 72.5265 226.851 72.8537 226.851C72.9628 226.851 72.9355 227.151 72.7992 227.533ZM152.687 246.891C154.351 249.727 156.723 251.99 160.131 253.98C162.149 255.125 161.44 255.125 159.204 253.953C156.886 252.726 154.078 250.218 152.797 248.2C151.869 246.782 150.506 243.129 150.506 242.202C150.533 241.929 150.888 242.638 151.297 243.756C151.733 244.874 152.36 246.291 152.687 246.891ZM105.436 245.555L106.472 246.482L104.836 246.319C103.937 246.237 103.119 246.073 103.037 245.964C102.928 245.882 102.764 245.064 102.682 244.165L102.519 242.529L103.446 243.565C103.964 244.137 104.864 245.037 105.436 245.555ZM103.091 248.309C103.991 248.691 104.618 249.1 104.509 249.209C104.236 249.482 99.2468 250.136 99.056 249.945C98.8924 249.781 99.4377 245.283 99.7104 244.574C99.7922 244.328 100.147 244.792 100.637 245.882C101.401 247.491 101.537 247.627 103.091 248.309ZM120.65 278.574C116.86 284.327 113.043 288.417 109.062 290.98C106.499 292.643 100.092 295.942 99.874 295.724C99.6558 295.506 101.755 292.043 103.609 289.617C105.654 286.917 110.289 282.418 112.743 280.782C113.807 280.101 116.124 278.792 117.924 277.892C121.359 276.202 121.932 275.956 122.123 276.093C122.177 276.147 121.523 277.265 120.65 278.574ZM125.776 279.528C124.086 284.927 122.695 288.499 120.65 292.698C118.469 297.169 116.915 299.65 114.052 303.195C112.034 305.703 104.509 313.556 104.1 313.556C103.637 313.556 105.136 308.266 106.936 303.658C110.644 294.143 115.47 287.081 123.622 279.256C125.204 277.729 126.567 276.474 126.622 276.474C126.676 276.474 126.294 277.865 125.776 279.528ZM129.239 286.29C128.885 291.362 128.53 293.379 127.358 296.733C126.458 299.323 124.14 303.985 122.341 306.848L121.141 308.702L120.978 306.521C120.596 301.559 121.741 294.388 123.759 289.235C124.713 286.808 127.985 280.81 129.048 279.501C129.539 278.901 129.593 281.082 129.239 286.29Z" fill="#4B87E1"/>
<path d="M93.3847 219.844C88.8314 225.406 87.0318 228.16 84.7688 233.122C81.8514 239.475 80.0791 245.528 79.2066 252.045C78.8249 254.853 78.7704 256.871 78.8522 262.133C78.9339 265.759 79.0703 268.922 79.1793 269.167C79.2884 269.413 79.5883 269.713 79.8337 269.822C80.0791 269.931 83.1874 270.067 86.7319 270.149C95.9477 270.34 101.973 269.44 109.553 266.795C117.297 264.096 122.068 261.397 128.721 255.971C131.475 253.735 133.929 251.69 134.147 251.445C134.638 250.927 134.42 251.063 130.466 253.626C119.478 260.797 109.662 264.614 96.2204 266.932C93.2757 267.45 91.9669 267.504 87.4408 267.422C84.5234 267.395 82.015 267.232 81.8786 267.122C81.7696 266.986 81.6332 264.478 81.5787 261.533C81.4969 257.007 81.5787 255.616 82.0695 252.753C84.3871 239.121 88.5314 228.705 96.0295 217.499C96.9293 216.163 97.6109 215.045 97.5564 214.991C97.5018 214.909 95.6205 217.117 93.3847 219.844Z" fill="#4B87E1"/>
<path d="M146.825 198.958C141.209 199.94 138.046 200.84 135.237 202.203C133.084 203.266 132.238 203.893 130.302 205.829C125.913 210.192 124.904 213.982 126.322 220.716L126.649 222.352L128.285 222.679C135.047 224.097 138.755 223.088 143.145 218.671C146.934 214.909 148.407 211.446 149.934 202.721C150.343 200.376 150.615 198.44 150.534 198.386C150.452 198.358 148.789 198.604 146.825 198.958ZM148.734 200.73C148.27 202.23 147.207 204.629 146.389 206.047C145.053 208.31 141.209 212.1 138.918 213.409C136.873 214.581 133.356 216.081 133.138 215.863C132.92 215.645 134.665 211.582 135.701 209.864C138.128 205.856 142.572 202.285 147.098 200.649C148.87 200.022 148.952 200.022 148.734 200.73Z" fill="#4B87E1"/>
<path d="M145.571 202.067C141.236 204.63 137.691 208.201 135.783 211.882C135.156 213.082 134.719 214.145 134.774 214.227C134.856 214.282 135.919 213.845 137.119 213.218C140.691 211.364 144.344 207.765 146.771 203.73C148.189 201.358 148.489 200.676 148.134 200.676C147.998 200.676 146.825 201.303 145.571 202.067Z" fill="#4B87E1"/>
<path d="M280.427 178.809C278.518 179.736 276.61 181.699 276.201 183.199C275.383 186.116 276.31 188.243 279.064 189.933L279.882 190.424L279.036 189.47C276.61 186.825 276.773 184.044 279.473 182.19C281.817 180.609 286.235 182.081 287.707 184.944C289.397 188.27 286.698 193.369 281.981 195.741L280.263 196.613L275.028 196.532L269.793 196.45L268.021 197.295C267.04 197.759 265.267 198.958 264.068 199.967C260.032 203.348 257.715 204.084 252.152 203.812C247.954 203.621 247.436 203.512 241.492 201.33C238.383 200.185 237.293 199.694 237.674 199.558C237.947 199.449 240.374 199.34 243.073 199.34C249.917 199.285 252.507 198.495 255.506 195.523C257.333 193.669 257.824 192.305 258.178 187.97C258.342 186.28 258.533 184.317 258.642 183.58L258.805 182.244L254.906 182.735C250.435 183.281 249.671 183.499 248.144 184.589C246.481 185.816 245.282 187.861 244.191 191.433C243.618 193.314 242.882 195.032 242.391 195.741C241.41 197.077 239.556 198.331 237.593 198.958L236.175 199.395L231.294 198.14C220.061 195.25 214.69 194.541 203.265 194.541H194.54L194.458 201.767C194.349 213.164 195.413 221.452 198.548 232.904C199.393 236.094 199.421 236.121 198.957 237.566C198.33 239.557 197.103 241.411 195.74 242.392C195.031 242.883 193.313 243.619 191.432 244.192C187.86 245.283 185.815 246.482 184.588 248.145C183.498 249.672 183.28 250.436 182.734 254.907L182.243 258.806L183.634 258.615C184.37 258.534 186.333 258.343 187.969 258.206C192.25 257.852 193.668 257.334 195.522 255.507C198.494 252.508 199.284 249.918 199.339 243.074C199.339 240.375 199.448 237.948 199.557 237.675C199.693 237.294 200.184 238.384 201.329 241.493C203.511 247.437 203.62 247.955 203.811 252.154C204.083 257.716 203.347 260.006 199.966 264.069C198.985 265.268 197.785 267.041 197.294 268.022L196.449 269.794L196.531 275.029L196.612 280.264L195.74 281.982C193.368 286.699 188.269 289.398 184.943 287.708C182.08 286.236 180.607 281.819 182.216 279.474C184.043 276.774 186.824 276.611 189.469 279.037L190.423 279.883L189.932 279.065C189.142 277.756 188.078 276.72 187.124 276.311C185.979 275.82 184.016 275.82 182.816 276.311C181.289 276.965 179.544 278.792 178.726 280.592C178.072 282.091 177.99 282.527 178.099 284.354C178.344 288.417 180.88 291.716 184.643 292.861C188.405 294.006 193.45 293.079 197.73 290.489C199.693 289.289 202.802 286.454 204.22 284.491C208.555 278.656 209.863 270.04 207.9 260.388C207.71 259.406 207.491 258.07 207.41 257.389C207.273 256.243 207.273 256.216 207.546 257.034C207.71 257.525 208.037 257.988 208.282 258.07C208.527 258.152 209.209 259.161 209.782 260.306C211.254 263.332 213.108 266.359 216.843 271.921L220.115 276.802L219.161 278.601C218.616 279.61 217.825 281.464 217.416 282.746C216.707 284.9 216.653 285.39 216.653 289.698C216.625 296.188 216.98 297.333 220.988 303.331C225.078 309.493 227.232 313.883 228.677 318.982C229.331 321.272 229.413 322.09 229.413 325.553C229.44 328.552 229.304 329.942 228.922 331.278C228.213 333.841 226.659 337.031 224.587 340.085C222.896 342.621 222.815 342.784 223.524 342.621C224.941 342.294 228.65 340.303 230.258 338.995C232.821 336.895 234.921 334.223 236.529 330.869C238.192 327.461 238.929 325.007 239.556 320.917C239.774 319.336 239.992 318.027 240.047 317.973C240.101 317.945 240.237 318.654 240.319 319.609C240.428 320.536 240.919 322.717 241.383 324.462C242.173 327.407 242.228 327.87 242.228 332.233C242.201 337.549 241.737 340.521 240.401 343.957L239.528 346.138L239.365 344.393C239.201 342.784 239.092 342.539 238.056 341.558C236.938 340.521 236.829 340.494 235.33 340.603C233.503 340.74 232.303 341.448 231.649 342.839C231.049 344.12 231.103 345.947 231.758 347.038C232.794 348.756 235.684 349.492 237.647 348.565C240.592 347.147 242.555 341.448 242.909 333.187L243.073 329.233L243.946 330.733C246.372 334.905 249.889 338.586 254.443 341.667C257.387 343.684 264.258 346.82 265.676 346.82C266.167 346.82 266.385 344.502 266.385 339.349C266.385 332.887 265.458 328.388 263.113 323.426C262.377 321.899 261.532 320.263 261.205 319.854C260.905 319.418 260.659 318.982 260.659 318.927C260.659 318.845 262.05 319.418 263.74 320.236C270.393 323.426 276.255 324.217 278.764 322.253C280.372 320.972 281.054 318.055 280.154 316.282C279.145 314.346 276.064 313.556 274.374 314.81C271.511 316.937 271.729 320.645 274.837 322.226L276.064 322.853L273.938 322.69C270.993 322.472 267.639 321.435 263.768 319.581C260.932 318.218 260.114 317.646 257.906 315.601C256.488 314.319 254.416 312.629 253.298 311.865C252.18 311.102 251.498 310.557 251.798 310.638C252.098 310.72 253.57 311.156 255.07 311.593C263.522 314.101 271.538 313.092 277.21 308.784C278.982 307.448 280.727 305.73 280.536 305.512C280.454 305.458 279.364 305.567 278.082 305.785C276.828 306.03 274.21 306.221 272.247 306.249C269.357 306.276 268.321 306.167 266.576 305.703C262.295 304.504 258.969 302.35 255.179 298.342C251.825 294.797 249.78 291.825 245.391 284.082C244.027 281.655 242.391 279.964 239.856 278.301C237.129 276.529 234.948 275.547 232.003 274.784C228.895 274.021 223.769 274.157 221.997 275.084C220.552 275.82 221.124 276.365 216.925 270.067C211.281 261.587 206.21 251.826 204.083 245.392C203.647 244.11 203.156 242.883 202.993 242.665C202.638 242.229 200.893 237.185 201.029 237.021C201.084 236.967 202.256 238.493 203.62 240.402C219.379 262.542 238.274 275.575 260.305 279.501C262.895 279.964 265.022 280.101 271.238 280.21C275.465 280.292 278.927 280.455 278.927 280.564C278.927 280.673 279.282 281.164 279.718 281.628C280.318 282.282 280.754 282.473 281.49 282.473C282.445 282.473 282.472 282.446 282.472 281.491C282.472 280.755 282.281 280.319 281.627 279.719C281.163 279.283 280.672 278.928 280.563 278.928C280.454 278.928 280.291 275.466 280.209 271.212C280.1 265.023 279.963 262.896 279.5 260.306C275.546 238.194 262.323 219.108 239.992 203.294C238.302 202.094 236.993 201.085 237.02 201.03C237.184 200.894 242.228 202.639 242.664 202.994C242.882 203.184 243.946 203.621 244.982 203.948C251.416 206.02 261.641 211.31 270.066 216.926C276.364 221.125 275.819 220.58 275.056 221.998C274.483 223.061 274.428 223.525 274.428 227.124C274.428 231.541 274.837 233.395 276.637 237.048C278.6 241.002 280.89 243.592 284.081 245.392C291.906 249.836 294.796 251.826 298.34 255.18C302.348 258.97 304.502 262.296 305.702 266.577C306.166 268.322 306.275 269.358 306.247 272.248C306.22 274.184 306.029 276.829 305.784 278.083C305.566 279.365 305.457 280.455 305.511 280.537C305.784 280.782 308.129 278.274 309.328 276.447C311.537 273.148 313.009 268.268 313.009 264.232C313.009 261.615 312.437 257.907 311.592 255.071C311.155 253.571 310.719 252.099 310.637 251.799C310.555 251.499 311.101 252.181 311.864 253.299C312.628 254.417 314.318 256.489 315.6 257.907C317.645 260.115 318.217 260.933 319.58 263.769C321.434 267.64 322.525 271.158 322.716 274.021L322.852 276.065L322.225 274.839C320.644 271.73 316.936 271.512 314.809 274.375C313.555 276.065 314.345 279.146 316.281 280.155C318.053 281.055 320.971 280.373 322.252 278.765C324.216 276.256 323.425 270.394 320.235 263.714C319.417 262.051 318.844 260.66 318.926 260.66C318.981 260.66 319.39 260.879 319.771 261.178C322.089 262.787 327.16 264.832 331.141 265.732C333.377 266.223 341.12 266.55 344.474 266.25C347.091 266.032 347.064 266.059 346.382 264.014C343.547 255.534 337.63 247.955 330.732 243.947L329.232 243.074L333.186 242.91C341.447 242.556 347.146 240.593 348.564 237.648C349.491 235.712 348.755 232.822 347.037 231.759C346.328 231.295 345.81 231.214 344.61 231.268C342.02 231.459 340.548 233.068 340.548 235.685C340.548 236.776 340.684 237.103 341.584 238.084C342.538 239.093 342.783 239.202 344.392 239.366L346.137 239.53L343.956 240.402C340.52 241.738 337.548 242.202 332.232 242.229C328.087 242.256 327.351 242.174 325.415 241.602C324.216 241.247 322.007 240.757 320.507 240.484L317.808 240.02L320.916 239.557C328.769 238.357 334.958 235.167 338.912 230.341C340.275 228.651 342.265 224.97 342.62 223.525C342.783 222.816 342.62 222.898 340.084 224.588C337.03 226.66 333.84 228.214 331.277 228.923C329.941 229.305 328.551 229.441 325.552 229.414C322.089 229.414 321.271 229.332 318.981 228.678C313.882 227.233 309.492 225.079 303.33 220.989C297.359 217.008 296.186 216.626 289.834 216.626C284.571 216.654 283.153 216.954 279.255 218.862L276.692 220.116L275.465 219.244C269.712 215.181 262.786 210.873 259.814 209.51C258.942 209.101 258.151 208.556 258.069 208.31C257.987 208.038 257.524 207.711 257.033 207.547C256.215 207.274 256.242 207.274 257.387 207.411C258.069 207.492 259.487 207.738 260.523 207.956C264.231 208.692 269.084 208.992 272.302 208.638C275.955 208.256 277.946 207.738 280.481 206.538C283.317 205.202 285.362 203.73 287.543 201.439C289.834 199.04 291.197 196.832 292.342 193.805C293.133 191.733 293.215 191.269 293.215 188.27C293.215 184.426 292.833 183.253 290.815 181.099C289.016 179.191 286.971 178.236 284.244 178.127C282.281 178.018 281.899 178.1 280.427 178.809ZM254.061 189.552C251.88 193.751 248.281 196.804 244.055 198.059C241.682 198.74 241.519 198.549 243.755 197.704C248.635 195.877 251.225 193.56 254.334 188.297C255.424 186.471 255.233 187.316 254.061 189.552ZM211.99 195.768C217.28 196.259 221.888 197.022 228.404 198.522C231.594 199.258 232.303 199.531 234.266 200.785C237.375 202.721 243.1 206.92 246.072 209.401C249.671 212.4 257.497 220.28 260.169 223.579C268.512 233.858 274.374 245.228 276.855 256.053C278.109 261.397 278.437 264.314 278.573 271.539L278.736 278.738L271.538 278.574C264.068 278.41 260.932 278.056 255.479 276.72C244.927 274.102 234.184 268.622 224.396 260.824C220.579 257.798 212.617 249.918 209.236 245.882C206.755 242.883 201.766 235.985 200.293 233.531C199.557 232.277 199.094 230.886 198.357 227.669C196.749 220.689 195.44 211.582 195.522 207.629C195.549 206.456 195.631 206.729 196.231 209.537C198.603 221.125 204.329 231.541 212.072 238.384C219.57 244.983 229.358 248.636 239.692 248.664C242.228 248.664 242.364 248.691 243.509 249.563C245.145 250.79 246.345 251.472 248.117 252.181C249.48 252.699 253.325 253.653 253.488 253.49C253.652 253.326 252.698 249.481 252.18 248.118C251.471 246.373 250.789 245.146 249.617 243.565C248.744 242.447 248.744 242.392 248.581 238.248C247.981 223.988 241.492 212.428 229.604 204.439C224.069 200.731 216.598 197.677 209.536 196.232C206.728 195.632 206.455 195.55 207.628 195.523C208.391 195.496 210.354 195.632 211.99 195.768ZM199.993 196.014C218.18 197.35 233.939 205.802 241.655 218.344C245.063 223.852 247.027 230.532 247.463 238.003L247.654 241.111L246.1 240.947C245.227 240.866 243.809 240.92 242.937 241.084L241.355 241.356L241.083 242.938C240.919 243.81 240.865 245.228 240.946 246.101L241.11 247.655L238.002 247.464C222.051 246.51 210.082 238.603 202.529 223.961C198.685 216.49 196.585 208.365 195.903 198.277C195.74 195.959 195.767 195.768 196.231 195.768C196.503 195.768 198.194 195.905 199.993 196.014ZM286.698 219.762C291.088 220.089 293.623 220.553 296.595 221.561C299.213 222.461 303.93 224.806 306.547 226.497L308.511 227.778L306.602 227.996C304.421 228.242 298.831 227.833 295.996 227.233C291.088 226.197 287.162 224.643 282.554 221.861C280.863 220.853 279.418 219.898 279.336 219.762C279.118 219.408 281.845 219.408 286.698 219.762ZM285.607 225.27C289.397 226.633 296.159 229.932 298.831 231.704C299.949 232.468 301.912 233.913 303.194 234.949C305.92 237.13 313.773 244.737 313.527 244.955C313.282 245.228 306.847 243.347 303.739 242.12C297.577 239.666 290.761 235.794 286.562 232.304C284.408 230.505 278.355 224.643 277.264 223.252L276.473 222.27L279.527 223.225C281.218 223.743 283.971 224.67 285.607 225.27ZM278.846 228.514C284.435 232.25 288.47 236.04 290.979 239.939C292.642 242.501 295.941 248.909 295.723 249.127C295.505 249.345 292.042 247.246 289.615 245.392C286.916 243.374 282.445 238.739 280.809 236.258C279.636 234.485 276.828 229.169 276.201 227.505C275.846 226.578 276.092 226.687 278.846 228.514ZM198.085 243.947C196.885 248.118 193.777 251.854 189.823 253.926C187.56 255.125 186.851 255.153 188.869 253.98C193.559 251.254 196.585 247.573 197.976 242.965C198.167 242.311 198.385 241.902 198.439 242.065C198.494 242.256 198.33 243.101 198.085 243.947ZM246.345 244.219C246.236 245.092 246.072 245.882 245.963 245.964C245.881 246.073 245.063 246.237 244.191 246.346L242.555 246.537L244.464 244.601C245.5 243.565 246.372 242.692 246.427 242.665C246.481 242.665 246.427 243.374 246.345 244.219ZM249.753 247.246C249.917 248.636 250.026 249.863 249.944 249.945C249.753 250.136 244.763 249.454 244.491 249.209C244.382 249.1 245.009 248.691 245.936 248.309C247.49 247.627 247.626 247.491 248.308 245.937C248.69 245.01 249.099 244.383 249.208 244.492C249.317 244.601 249.562 245.855 249.753 247.246ZM231.294 278.001C232.957 278.847 235.193 280.101 236.257 280.81C238.738 282.446 243.373 286.917 245.391 289.617C247.245 292.043 249.344 295.506 249.126 295.724C248.908 295.942 242.5 292.643 239.937 290.98C236.038 288.471 232.249 284.436 228.513 278.847C226.686 276.093 226.577 275.847 227.504 276.202C227.913 276.338 229.604 277.156 231.294 278.001ZM227.532 281.41C229.358 283.264 231.485 285.581 232.303 286.563C235.793 290.789 239.692 297.578 242.119 303.74C243.373 306.876 245.227 313.283 244.954 313.528C244.682 313.801 236.366 305.103 234.184 302.213C229.522 296.16 226.359 289.562 223.224 279.528L222.269 276.474L223.251 277.265C223.823 277.701 225.732 279.583 227.532 281.41ZM221.779 282.446C224.56 287.026 226.223 291.089 227.232 295.969C227.832 298.805 228.213 304.013 228.022 306.521L227.859 308.702L226.659 306.848C223.742 302.322 221.261 296.597 220.443 292.507C219.734 288.989 219.188 278.983 219.734 279.31C219.843 279.392 220.77 280.81 221.779 282.446Z" fill="#4B87E1"/>
<path d="M251.389 214.936C251.389 215.045 252.098 216.218 252.97 217.526C259.242 226.851 262.95 235.194 265.431 245.528C267.176 252.753 267.53 255.535 267.421 261.533C267.367 264.478 267.23 266.986 267.121 267.122C266.985 267.232 264.477 267.368 261.532 267.422C255.533 267.531 252.752 267.177 245.527 265.432C235.193 262.951 226.714 259.161 217.198 252.781C216.135 252.072 215.071 251.39 214.853 251.254C214.035 250.818 215.262 251.881 220.279 255.971C226.932 261.397 231.703 264.096 239.447 266.795C247.027 269.44 253.052 270.34 262.268 270.149C265.813 270.067 268.921 269.931 269.166 269.822C269.412 269.713 269.712 269.413 269.821 269.167C269.93 268.922 270.066 265.759 270.148 262.133C270.284 254.744 269.93 251.008 268.539 245.392C266.14 235.522 262.513 228.296 255.97 220.28C251.444 214.718 251.389 214.663 251.389 214.936Z" fill="#4B87E1"/>
<path d="M198.412 198.413C198.357 198.44 198.657 200.403 199.066 202.721C200.593 211.446 202.066 214.936 205.828 218.671C210.245 223.088 213.981 224.097 220.715 222.679L222.351 222.352L222.678 220.716C224.096 213.982 223.087 210.273 218.67 205.829C214.935 202.066 211.281 200.54 202.093 198.958C200.102 198.604 198.439 198.358 198.412 198.413ZM202.938 201.085C203.811 201.439 205.201 202.121 206.046 202.612C208.309 203.948 212.099 207.792 213.408 210.083C214.58 212.128 216.08 215.645 215.862 215.863C215.644 216.081 212.127 214.581 210.082 213.409C207.791 212.1 203.947 208.31 202.611 206.047C201.766 204.629 200.73 202.23 200.266 200.73C200.048 199.967 200.184 199.994 202.938 201.085Z" fill="#4B87E1"/>
<path d="M200.784 201.112C200.893 201.385 201.547 202.585 202.229 203.73C204.656 207.765 208.309 211.364 211.881 213.218C213.081 213.845 214.144 214.282 214.226 214.227C214.499 213.927 212.045 209.646 210.709 208.12C208.746 205.884 206.155 203.675 203.701 202.23C201.002 200.594 200.511 200.403 200.784 201.112Z" fill="#4B87E1"/>
<path d="M157.459 178.891C151.433 179.654 147.752 183.172 147.725 188.161C147.698 189.852 147.807 190.206 148.489 191.215C150.097 193.478 152.578 194.078 154.46 192.66C156.368 191.215 157.077 189.006 156.014 188.052C155.305 187.398 155.196 187.452 155.087 188.597C155.005 189.579 154.951 189.633 154.024 189.715C153.206 189.797 152.906 189.661 152.442 189.061C151.679 188.079 151.706 187.398 152.66 185.898C154.16 183.553 157.377 182.435 160.295 183.226L161.494 183.553L159.831 184.617C158.059 185.707 157.05 186.989 157.05 188.107C157.05 188.543 157.595 189.306 158.686 190.397C160.158 191.897 160.376 192.006 161.194 191.842C162.53 191.569 163.267 190.969 164.412 189.17L165.448 187.507L165.775 188.706C166.566 191.624 165.448 194.841 163.103 196.341C161.603 197.295 160.922 197.322 159.94 196.559C159.34 196.095 159.204 195.796 159.286 194.978C159.368 194.051 159.422 193.996 160.404 193.914C161.522 193.805 161.658 193.614 160.922 192.96C159.831 191.978 157.759 192.66 156.423 194.459C155.55 195.632 155.36 196.504 155.714 197.759C156.614 201.003 160.54 202.257 164.412 200.512C168.12 198.849 170.192 194.841 170.165 189.361C170.165 186.743 169.919 185.271 168.992 182.381L168.42 180.554L166.075 179.845C163.948 179.191 162.939 179.027 160.049 178.754C159.531 178.7 158.359 178.754 157.459 178.891Z" fill="#4B87E1"/>
<path d="M187.369 178.891C186.306 179 184.316 179.409 183.007 179.818L180.58 180.554L180.008 182.381C179.081 185.271 178.835 186.743 178.835 189.361C178.808 194.841 180.88 198.849 184.588 200.513C188.515 202.285 192.414 201.003 193.313 197.677C193.913 195.387 191.677 192.496 189.278 192.496C188.596 192.496 187.587 193.178 187.587 193.669C187.587 193.751 188.051 193.86 188.624 193.914C189.578 193.996 189.632 194.051 189.714 194.978C189.796 195.796 189.66 196.095 189.06 196.559C188.078 197.322 187.397 197.295 185.897 196.341C183.552 194.841 182.434 191.624 183.225 188.707L183.552 187.507L184.588 189.17C185.733 190.97 186.47 191.569 187.806 191.842C188.624 192.006 188.842 191.897 190.369 190.37C191.895 188.843 192.005 188.625 191.841 187.807C191.568 186.471 190.968 185.735 189.169 184.589L187.506 183.553L188.705 183.226C191.623 182.435 194.84 183.553 196.34 185.898C197.294 187.398 197.321 188.079 196.558 189.061C196.094 189.661 195.794 189.797 194.976 189.715C194.049 189.634 193.995 189.579 193.913 188.597C193.804 187.48 193.613 187.343 192.959 188.079C191.432 189.743 194.022 193.396 196.694 193.396C198.194 193.396 199.475 192.66 200.511 191.215C201.193 190.206 201.302 189.852 201.275 188.188C201.248 181.972 195.385 178.073 187.369 178.891Z" fill="#4B87E1"/>
<path d="M171.364 206.838C170.765 207.056 170.083 207.302 169.865 207.383C169.592 207.492 169.756 207.656 170.41 207.847C170.955 208.038 171.583 208.528 171.91 209.047C172.21 209.537 172.7 210.328 173 210.792C173.737 211.964 174.364 212.346 174.991 211.964C175.236 211.8 175.7 211.282 176 210.792C176.3 210.328 176.79 209.537 177.09 209.047C177.417 208.528 178.045 208.038 178.59 207.847C179.599 207.52 179.626 207.547 177.526 206.811C176.054 206.293 172.81 206.32 171.364 206.838Z" fill="#4B87E1"/>
<path d="M172.51 215.4C171.61 216.218 170.328 217.881 169.347 219.489C168.42 220.962 167.547 222.271 167.411 222.352C167.247 222.434 167.029 222.734 166.893 223.007C166.647 223.47 166.838 223.497 170.356 223.416C172.401 223.361 174.282 223.334 174.5 223.334C174.718 223.334 176.599 223.361 178.644 223.416C182.162 223.497 182.352 223.47 182.107 223.007C181.971 222.734 181.753 222.434 181.589 222.352C181.453 222.271 180.58 220.962 179.653 219.489C177.963 216.708 175.427 214.036 174.5 214.036C174.227 214.036 173.328 214.663 172.51 215.4ZM175.4 218.535L176.163 219.489H174.5H172.837L173.6 218.535C174.009 218.017 174.418 217.581 174.5 217.581C174.582 217.581 174.991 218.017 175.4 218.535Z" fill="#4B87E1"/>
<path d="M140.445 259.052C139.736 260.988 138.455 265.187 137.964 267.204C135.837 276.366 136.274 289.726 138.946 297.251C141.127 303.331 144.344 308.512 148.734 312.929C151.351 315.574 152.06 316.119 154.051 317.073C155.687 317.864 157.023 318.3 158.577 318.518C164.166 319.336 169.838 316.582 172.101 311.974C172.919 310.311 173 309.957 173 307.53C173 304.994 172.946 304.831 171.91 302.759C170.437 299.869 169.101 298.832 166.893 298.832C165.693 298.832 165.066 298.996 164.384 299.46C163.212 300.223 162.23 302.132 162.23 303.604L162.258 304.695L162.83 303.604C163.757 301.777 164.357 301.286 165.666 301.286C167.138 301.286 168.283 302.213 168.938 303.877C169.947 306.521 168.311 310.066 165.421 311.565C164.166 312.22 163.703 312.302 161.412 312.302C157.05 312.274 152.851 310.475 149.661 307.23C145.408 302.895 142.108 296.924 140.282 290.271C138.155 282.5 138.155 272.194 140.282 261.887C140.909 258.752 140.991 257.661 140.445 259.052Z" fill="#4B87E1"/>
<path d="M208.146 259.025C208.582 260.77 209.673 267.068 209.973 269.522C210.436 273.366 210.354 281.164 209.836 284.791C208.691 292.67 205.583 299.896 200.948 305.458C198.248 308.703 196.013 310.284 192.359 311.538C190.587 312.138 189.687 312.302 187.588 312.302C185.297 312.302 184.834 312.22 183.579 311.565C180.689 310.066 179.053 306.521 180.062 303.877C180.717 302.213 181.862 301.286 183.334 301.286C184.643 301.286 185.243 301.777 186.17 303.604L186.742 304.695L186.77 303.604C186.77 302.132 185.788 300.223 184.616 299.46C183.934 298.996 183.307 298.832 182.107 298.832C179.899 298.832 178.563 299.868 177.09 302.759C176.054 304.831 176 304.994 176 307.53C176 309.957 176.081 310.311 176.899 311.974C178.535 315.328 181.698 317.564 185.952 318.382C189.033 319.009 191.759 318.6 194.867 317.128C198.63 315.328 203.074 310.666 206.428 305.049C208.2 302.05 210.109 297.524 210.927 294.306C212.808 286.863 212.835 275.03 211.036 267.204C210.354 264.341 208.609 258.997 208.255 258.616C208.064 258.425 208.009 258.561 208.146 259.025Z" fill="#4B87E1"/>
</g>
<defs>
<clipPath id="clip0_1122_11568">
<rect width="349" height="349" fill="white" transform="translate(0 0.000976562)"/>
</clipPath>
</defs>
</svg>
