<svg width="529" height="300" viewBox="0 0 529 300" fill="none" xmlns="http://www.w3.org/2000/svg">
<g opacity="0.5" clip-path="url(#clip0_633_7766)">
<path d="M281.155 299.711C281.982 299.629 283.387 299.629 284.255 299.711C285.081 299.794 284.379 299.877 282.684 299.877C280.99 299.877 280.287 299.794 281.155 299.711Z" fill="#B3C9EA"/>
<path d="M289.793 299.008C323.765 294.048 349.223 268.748 354.637 234.478C355.339 230.22 355.339 217.653 354.637 213.396C352.942 202.647 348.768 191.238 342.982 181.565C339.965 176.563 333.931 168.377 330.294 164.409L327.815 161.722L326.864 162.549L325.872 163.375L326.699 162.383L327.525 161.433L323.393 157.464C312.937 147.501 298.513 137.828 281.197 129.147C268.344 122.739 240.612 111.123 240.323 112.033C240.24 112.322 239.868 114.306 239.455 116.456C237.306 128.279 232.429 142.169 226.437 153.661C209.906 185.161 181.802 208.518 151.013 216.331C133.944 220.63 118.198 220.258 102.742 215.214C81.1271 208.146 64.4305 191.734 57.4461 170.651C54.5118 161.846 53.9745 158.373 53.9745 148.08C53.9745 140.143 54.0572 138.448 54.8837 134.686C58.5206 118.027 66.9516 103.847 78.9367 94.1328C80.1766 93.1407 79.2673 94.1741 76.9116 96.4064C71.6216 101.45 67.9021 106.038 64.5545 111.619C48.4366 138.324 52.2801 172.429 73.8947 195.041C84.392 206.037 97.5344 212.899 113.859 215.876C119.728 216.951 130.969 217.157 137.54 216.331C185.398 210.212 226.478 167.385 235.529 114.141L236.273 109.883L231.231 107.857L226.148 105.832L224.412 110.627C219.907 123.029 212.137 136.712 203.293 147.873C199.036 153.289 188.332 164.037 183.042 168.253C168.412 179.952 152.831 187.104 137.003 189.46C131.01 190.37 120.141 190.039 114.562 188.84C103.238 186.401 93.8975 181.606 86.5411 174.496C76.5397 164.698 70.9604 152.214 70.4645 138.283L70.2991 133.198L70.6711 137.332C71.7456 148.948 74.06 156.1 79.598 164.533C82.119 168.377 89.4341 175.694 93.4016 178.34C105.635 186.525 120.719 189.46 137.003 186.897C154.485 184.169 172.38 174.206 188.25 158.415C201.847 144.897 211.848 129.436 218.543 111.495C221.725 103.062 221.973 104.178 216.27 101.78C199.284 94.7529 182.712 86.2784 172.132 79.2508C170.561 78.2173 169.032 77.1838 168.743 77.0185C168.453 76.8945 169.073 78.4653 170.065 80.5736C172.834 86.5264 177.256 100.747 178.662 108.395C178.744 108.849 178.951 107.692 179.116 105.832C179.736 99.3415 178.538 92.0245 176.099 87.1465C175.314 85.617 174.983 84.6248 175.314 84.6248C175.562 84.6248 177.339 85.3689 179.199 86.2784C183.456 88.3454 186.762 91.4458 188.374 94.8356C189.407 97.0679 189.489 97.6053 189.448 102.401C189.448 106.907 189.242 108.436 187.836 114.389C186.431 120.383 186.225 121.871 186.225 126.625L186.183 132.082L185.15 131.338C183.621 130.222 175.19 121.582 172.752 118.564C166.511 110.958 160.188 99.5895 158.121 92.2725C156.014 84.8729 155.931 77.9279 157.873 72.2232C158.576 70.0735 158.659 69.5361 158.204 69.1228C157.915 68.8747 155.807 67.0558 153.493 65.1129C141.755 54.9848 131.795 41.9218 124.77 27.3705C120.885 19.3094 118.777 13.6459 116.297 4.51004L115.595 1.90569L114.438 3.93129C112.95 6.57698 107.742 12.0751 103.568 15.4235C101.709 16.9117 96.5838 20.5495 92.1617 23.5673C87.7396 26.5437 83.1109 29.6854 81.9123 30.5949C80.6725 31.463 79.598 32.1244 79.474 32.0004C79.226 31.7524 81.1684 14.9274 82.0777 9.59473C83.6895 -0.161255 86.3345 -8.42905 89.7234 -14.4645C92.327 -19.0945 97.2451 -23.9311 101.254 -25.8741C104.271 -27.3623 109.065 -28.8505 109.437 -28.4371C109.933 -27.9823 109.974 -21.9882 109.561 -19.2185C108.28 -10.9094 102.452 1.90569 96.1292 10.5455C93.5256 14.0593 95.096 13.1912 98.3609 9.26401C103.072 3.68326 106.792 -2.60025 110.553 -11.4468L112.495 -15.9941L112.578 -26.1221C112.66 -34.1005 112.908 -37.573 113.611 -42.2856C116.421 -60.8468 123.034 -77.7131 134.027 -94.1659C144.07 -109.255 161.304 -124.219 178.827 -132.983C212.055 -149.601 252.06 -150.18 285.04 -134.471C298.265 -128.188 309.134 -120.457 319.714 -109.916C330.088 -99.4987 338.643 -87.4277 344.098 -75.4808C345.338 -72.7524 345.379 -72.4217 344.759 -72.091C343.685 -71.5536 334.055 -67.5023 333.766 -67.5023C333.642 -67.5023 333.518 -67.709 333.518 -67.9571C333.518 -68.7012 328.228 -78.9532 325.79 -82.8804C314.838 -100.615 298.058 -115.58 278.758 -124.798C268.22 -129.841 257.888 -132.859 245.489 -134.513C240.282 -135.215 224.536 -135.257 219.039 -134.554C198.127 -131.95 179.571 -124.385 163.246 -111.818C154.815 -105.327 143.698 -92.9258 137.416 -83.0044C131.671 -73.9099 124.976 -57.9944 123.364 -49.5613C122.621 -45.7994 122.538 -34.4312 123.158 -28.8505C125.555 -8.09833 134.895 11.5377 149.277 25.9236C157.171 33.8193 164.403 39.0694 174.033 43.8647C184.53 49.1147 195.482 52.4218 209.947 54.8195C218.667 56.2664 225.61 57.1345 225.9 56.8038C226.272 56.4731 224.866 46.7997 223.585 40.8469C219.328 20.6736 210.319 2.2364 197.218 -13.3484C193.168 -18.185 183.952 -27.2382 179.777 -30.4627C175.521 -33.8111 175.479 -33.8525 176.554 -35.382C177.05 -36.0848 178.331 -37.5316 179.447 -38.6478L181.389 -40.5907L184.241 -38.1931C192.878 -31.0001 199.656 -23.8485 206.475 -14.7952C211.765 -7.72627 215.485 -1.44276 222.635 12.6951C230.694 28.5279 234.372 38.1599 237.843 52.5045C238.587 55.6876 239.29 58.292 239.373 58.3746C239.455 58.416 242.389 58.788 245.902 59.2014C265.988 61.3924 279.172 63.9554 291.074 68.0893C317.359 77.1425 335.212 94.7942 339.759 116.249C342.114 127.493 340.709 139.316 335.791 149.692C334.386 152.669 330.418 159.035 330.005 159.035C329.716 159.035 329.757 158.952 332.196 155.19C343.106 138.2 342.652 115.712 331.038 98.4734C318.061 79.2508 294.546 67.5105 260.45 63.294C254.168 62.5499 239.951 61.0617 239.868 61.1857C239.827 61.227 240.116 63.5833 240.53 66.4357C242.142 77.6799 242.555 88.7174 241.728 99.8376C241.48 103.186 241.274 106.08 241.232 106.286C241.191 106.452 245.613 108.519 251.068 110.834C265.74 117.076 271.608 119.763 281.238 124.682C309.134 138.944 328.352 154.57 341.246 173.586L343.974 177.555L346.702 178.216C348.189 178.588 353.356 179.498 358.15 180.283C367.655 181.813 372.077 183.094 375.425 185.244C380.756 188.675 384.104 195 385.715 204.921C386.873 211.907 387.741 228.071 386.955 228.071C386.542 228.071 378.731 222.325 374.02 218.604C364.845 211.37 358.439 203.805 354.223 195.248C352.446 191.693 350.752 187.145 351.041 186.815C351.413 186.484 356.827 189.254 360.381 191.61C364.555 194.38 370.672 200.374 373.11 204.053C375.301 207.401 375.342 206.905 373.11 202.895C369.349 195.992 364.225 190.411 357.695 186.112C354.471 184.004 345.545 178.878 345.049 178.878C344.925 178.878 346.247 181.73 347.983 185.202C352.818 194.917 355.546 203.764 356.868 213.726C358.77 228.319 355.877 244.317 348.851 258.166C338.56 278.38 319.508 293.056 297.067 298.099C294.422 298.678 290.826 299.256 289.049 299.38L285.784 299.587L289.793 299.008ZM237.471 95.1663C237.843 85.1622 237.099 75.2823 235.116 63.666C234.661 60.979 234.537 60.6483 233.711 60.6483C232.801 60.6483 232.801 60.7723 232.553 68.8334C232.223 79.1681 230.983 87.8079 228.503 97.5639C228.049 99.3828 227.759 100.912 227.842 101.036C227.966 101.119 229.95 102.029 232.305 103.021L236.604 104.84L236.893 103.723C237.058 103.103 237.347 99.2588 237.471 95.1663ZM223.503 94.6702C225.569 85.4516 226.602 74.8275 226.396 65.6089L226.272 60.0282L224.205 59.7388C223.089 59.5735 219.08 59.0361 215.32 58.5813C193.829 55.9356 177.298 50.6856 163.701 42.2525C148.409 32.7859 135.804 18.9787 127.704 2.81514C125.927 -0.740005 123.034 -8.22235 121.753 -12.5216C120.843 -15.622 120.719 -15.8287 120.719 -14.3819C120.678 -13.4724 121.05 -10.2893 121.505 -7.35423C125.844 20.9216 139.648 45.4769 161.386 63.7074C169.693 70.6936 178 76.3571 188.828 82.5992C197.053 87.2705 220.527 98.5974 222.18 98.6801C222.428 98.6801 223.048 96.8612 223.503 94.6702ZM233.793 57.0518C233.669 56.6384 233.339 55.2742 233.091 54.0341C232.347 50.7683 231.851 50.1069 232.099 52.7939C232.471 56.9278 232.677 57.7545 233.339 57.7545C233.752 57.7545 233.917 57.5065 233.793 57.0518Z" fill="#B3C9EA"/>
<path d="M157.006 245.929C149.98 242.25 150.765 231.749 158.245 229.104C161.717 227.905 165.23 228.69 167.875 231.253C173.785 236.999 169.652 247.086 161.386 247.086C159.816 247.086 158.617 246.755 157.006 245.929Z" fill="#B3C9EA"/>
<path d="M185.894 232.246C183.993 231.626 182.464 230.51 181.43 228.981C180.604 227.782 180.397 226.996 180.397 224.929C180.397 222.656 180.563 222.16 181.678 220.754C183.29 218.77 185.274 217.736 187.63 217.736C189.985 217.736 191.969 218.77 193.581 220.754C194.697 222.16 194.862 222.656 194.862 224.929C194.862 226.996 194.655 227.782 193.829 229.022C192.093 231.544 188.456 233.032 185.894 232.246Z" fill="#B3C9EA"/>
<path d="M205.07 210.708C201.475 208.517 201.144 204.218 204.368 201.2C205.277 200.332 205.897 200.167 207.88 200.167C210.484 200.167 211.848 200.994 213.088 203.35C214.906 206.823 211.889 211.535 207.88 211.535C207.095 211.535 205.814 211.163 205.07 210.708Z" fill="#B3C9EA"/>
<path d="M221.519 192.23C221.188 192.106 220.444 191.61 219.948 191.114C217.717 189.13 217.179 186.278 218.626 183.963C221.601 179.043 228.71 180.614 229.288 186.278C229.495 188.799 228.421 190.866 226.313 191.858C224.949 192.52 222.759 192.685 221.519 192.23Z" fill="#B3C9EA"/>
<path d="M294.38 169.949C292.355 167.923 293.967 164.409 296.901 164.409C299.174 164.409 300.745 166.765 300.001 168.956C299.174 171.271 296.24 171.809 294.38 169.949Z" fill="#B3C9EA"/>
<path d="M285.288 155.066C284.544 154.694 283.676 153.784 283.304 152.958C281.94 150.105 284.048 146.633 287.107 146.633C289.999 146.633 291.777 148.41 291.777 151.304C291.777 152.916 290.909 154.281 289.297 155.107C287.809 155.893 286.941 155.893 285.288 155.066Z" fill="#B3C9EA"/>
<path d="M457.585 146.095C454.899 143.243 458.99 139.357 461.8 142.085C462.792 143.078 462.834 145.144 461.842 146.219C460.809 147.377 458.701 147.294 457.585 146.095Z" fill="#B3C9EA"/>
<path d="M437.169 145.93C437.458 145.806 437.83 145.848 437.954 145.972C438.119 146.096 437.871 146.22 437.417 146.178C436.962 146.178 436.838 146.054 437.169 145.93Z" fill="#B3C9EA"/>
<path d="M439.111 145.393C439.566 145.186 440.227 145.021 440.558 145.021C440.93 145.021 440.888 145.186 440.351 145.393C439.897 145.599 439.235 145.765 438.905 145.765C438.533 145.765 438.574 145.599 439.111 145.393Z" fill="#B3C9EA"/>
<path d="M443.451 144.07C444.029 143.822 446.054 142.871 447.956 142.003C459.817 136.587 469.405 126.253 474.24 113.768C480.192 98.3489 479.117 82.7227 471.058 68.0061C461.057 49.693 442.294 36.5058 417.001 30.057C402.288 26.2951 387.327 24.8483 355.629 24.0628C325.666 23.3187 308.969 21.4171 293.636 16.9525C281.155 13.3561 269.005 7.32057 260.326 0.499649C256.482 -2.51809 250.035 -9.0083 247.349 -12.5221C232.181 -32.3234 230.239 -57.2921 242.348 -75.9773C245.489 -80.8553 252.35 -87.5936 257.144 -90.57C276.94 -102.806 302.191 -99.6645 318.268 -82.9223C321.946 -79.0778 325.418 -73.9931 327.525 -69.3631C328.807 -66.5521 328.889 -66.2627 328.228 -65.932C327.153 -65.3532 323.145 -64.0717 322.979 -64.2371C322.938 -64.3198 322.318 -65.6426 321.615 -67.1721C314.796 -82.3022 299.216 -92.3062 282.478 -92.3062C261.111 -92.3062 242.968 -76.5561 239.703 -55.1425C238.918 -50.0165 239.373 -41.5007 240.695 -36.292C243.423 -25.7092 248.134 -17.4414 256.193 -9.04964C271.526 6.78316 293.016 15.7124 324.013 19.0608C332.815 20.0116 340.13 20.4663 358.108 21.1691C388.112 22.3266 402.743 23.9388 416.505 27.618C436.053 32.7853 450.229 40.6811 461.883 52.9174C477.464 69.2049 482.837 90.7425 476.307 110.544C472.628 121.623 465.272 131.627 456.18 137.828C453.039 140.018 445.435 143.863 443.451 144.318L442.418 144.566L443.451 144.07Z" fill="#B3C9EA"/>
<path d="M270.245 142.292C269.087 141.672 267.806 139.399 267.806 137.952C267.806 135.72 270.493 132.991 272.683 132.991C275.617 132.991 277.725 135.224 277.725 138.407C277.725 139.771 277.477 140.35 276.32 141.507C275.163 142.665 274.625 142.913 273.138 142.913C272.146 142.871 270.823 142.623 270.245 142.292Z" fill="#B3C9EA"/>
<path d="M470.066 140.06C466.471 137.869 468 132.495 472.215 132.495C474.199 132.495 475.563 133.529 476.141 135.389C476.72 137.373 475.893 139.275 474.034 140.225C472.463 141.052 471.637 141.011 470.066 140.06Z" fill="#B3C9EA"/>
<path d="M252.556 131.917C250.779 130.429 250.159 128.238 250.986 126.253C251.73 124.517 253.796 123.07 255.614 123.07C257.433 123.07 259.499 124.517 260.243 126.253C261.566 129.437 259.127 132.992 255.614 132.992C254.292 132.992 253.507 132.702 252.556 131.917Z" fill="#B3C9EA"/>
<path d="M21.5733 112.859C10.0014 88.6346 3.63687 65.4435 0.7439 37.0849C-0.0413341 29.3132 0.0826503 7.03156 0.991869 -0.946854C1.90109 -9.29732 2.72765 -14.8367 3.96749 -21.2029C14.9194 -76.3904 46.9488 -125.046 92.9883 -156.464C108.817 -167.295 128.406 -177.009 146.426 -183.003C186.927 -196.48 230.115 -197.513 271.98 -185.98C281.031 -183.5 292.396 -179.448 301.075 -175.604C306.82 -173.082 314.094 -169.444 314.094 -169.114C314.094 -168.742 312.399 -165.352 311.697 -164.318C311.407 -163.864 309.754 -164.484 304.134 -167.253C280.659 -178.787 255.738 -185.649 229.082 -188.005C219.907 -188.832 201.805 -188.791 193.209 -188.005C166.511 -185.442 142.582 -178.746 119.314 -167.253C103.444 -159.44 90.2606 -150.883 76.457 -139.474C70.6711 -134.72 55.9996 -120.086 51.2882 -114.422C13.7623 -69.2387 -3.76087 -11.9017 2.68632 44.7327C5.49663 69.3706 12.6877 94.2567 22.8131 114.554C23.7223 116.332 24.3423 117.861 24.2596 117.944C24.1769 118.027 22.9784 115.753 21.5733 112.859Z" fill="#B3C9EA"/>
<path d="M341.494 100.913C339.263 99.7964 338.312 97.7295 338.436 94.381C338.477 92.7688 341.164 90.1645 343.106 89.7924C345.173 89.4204 348.107 90.7432 349.223 92.5621C352.24 97.4815 346.702 103.476 341.494 100.913Z" fill="#B3C9EA"/>
<path d="M305.167 94.7945C303.39 94.009 302.522 92.6035 302.522 90.4952C302.522 85.4932 309.63 84.5424 311.201 89.3377C312.358 92.8515 308.514 96.2827 305.167 94.7945Z" fill="#B3C9EA"/>
<path d="M81.4164 92.3132C81.4164 92.2305 81.747 91.8998 82.1603 91.6105C82.7802 91.0731 82.8216 91.1144 82.2843 91.7758C81.747 92.4372 81.4164 92.6439 81.4164 92.3132Z" fill="#B3C9EA"/>
<path d="M498.004 78.0515C497.219 77.6381 494.698 76.6873 492.425 75.9432C478.869 71.6027 477.133 70.8172 474.282 67.6755C472.835 66.0632 471.347 63.6242 471.637 63.2935C471.719 63.2109 472.711 63.8309 473.868 64.6164C476.927 66.8487 481.39 68.8329 483.952 69.081L486.225 69.329L484.118 68.5849C480.357 67.2621 476.017 64.3683 472.298 60.6478C470.273 58.7049 468.661 56.8447 468.661 56.5553C468.661 56.0592 469.57 56.0179 473.786 56.2246C482.258 56.6793 488.25 58.3329 491.598 61.1852C493.458 62.7148 495.028 65.9392 496.433 70.8999C497.095 73.3389 498.087 76.1086 498.624 77.1007C499.161 78.0515 499.574 78.837 499.533 78.837C499.492 78.7956 498.789 78.4649 498.004 78.0515Z" fill="#B3C9EA"/>
<path d="M407.702 74.083C406.999 72.3881 404.437 68.6263 402.412 66.2699C401.255 64.9471 396.585 60.6478 391.997 56.7206C380.301 46.6753 376.747 42.5827 375.053 37.2914C374.226 34.563 374.35 29.1476 375.342 26.8326L375.921 25.5098L376.788 26.4192C377.987 27.7421 380.095 31.1732 382.698 36.0512C383.897 38.3248 385.591 41.2186 386.459 42.5001C388.112 44.9804 391.997 48.7422 393.898 49.693C394.932 50.2718 394.849 49.9824 392.782 47.13C389.683 42.7894 387.368 38.8209 385.55 34.6043C384.062 31.1319 382.864 26.6673 383.277 26.0058C383.649 25.3444 392.204 26.3365 395.386 27.37C407.33 31.3799 411.256 40.6811 409.355 60.6478C408.942 64.8644 408.487 69.7837 408.363 71.6027C408.157 74.0003 407.95 74.6617 407.702 74.083Z" fill="#B3C9EA"/>
<path d="M19.0936 43.4921C19.0936 42.8307 19.1762 42.5827 19.3002 42.996C19.3829 43.3681 19.3829 43.9468 19.3002 44.2362C19.1762 44.4842 19.0936 44.1949 19.0936 43.4921Z" fill="#B3C9EA"/>
<path d="M18.7216 39.5653C18.7216 38.3252 18.8043 37.7878 18.8869 38.4492C18.9696 39.0693 18.9696 40.0614 18.8869 40.7228C18.8043 41.3429 18.7216 40.8055 18.7216 39.5653Z" fill="#B3C9EA"/>
<path d="M18.0191 28.7342C17.2338 7.40334 20.8294 -17.2347 27.7312 -37.9041C41.4108 -78.9537 69.1833 -115.001 104.973 -138.275C161.304 -174.901 231.355 -179.986 292.397 -151.917C310.746 -143.484 326.988 -132.818 358.728 -108.428C386.997 -86.7254 398.651 -78.6643 414.562 -69.8591C434.689 -58.7389 454.155 -52.6208 476.513 -50.3471C484.862 -49.479 503.253 -49.6857 510.816 -50.7192C515.486 -51.3806 526.024 -53.2822 527.058 -53.6542C527.595 -53.9023 529.165 -48.0735 528.669 -47.6188C528.256 -47.2054 517.222 -45.2624 510.816 -44.477C502.757 -43.4849 483.374 -43.4849 475.274 -44.477C446.344 -48.0322 423.489 -56.8787 395.552 -75.3572C386.087 -81.5993 377.326 -88.0069 362.902 -99.2924C324.219 -129.47 314.011 -136.539 295.29 -146.047C274.501 -156.629 253.589 -162.83 229.123 -165.765C220.527 -166.758 197.424 -166.799 189.035 -165.765C161.552 -162.458 136.507 -154.273 113.652 -141.086C63.1907 -111.942 28.1031 -59.8551 20.2921 -2.394C18.887 7.8994 18.5563 13.1908 18.5563 25.2204C18.5563 31.5039 18.4737 36.6713 18.4323 36.6713C18.3497 36.6713 18.1844 33.0748 18.0191 28.7342Z" fill="#B3C9EA"/>
<path d="M173.95 34.0255C169.28 32.3719 166.676 27.7006 167.792 23.0707C169.859 14.4722 181.968 13.4387 185.398 21.5825C186.266 23.6907 186.266 27.0805 185.315 29.0235C184.241 31.3384 181.968 33.2814 179.653 33.9841C177.132 34.7282 175.934 34.7282 173.95 34.0255Z" fill="#B3C9EA"/>
<path d="M152.997 11.8272C149.029 9.84292 147.707 4.84092 150.145 1.16175C152.17 -1.89733 155.931 -2.97214 159.361 -1.40126C164.982 1.16175 164.982 9.34686 159.361 11.9099C157.13 12.902 155.187 12.902 152.997 11.8272Z" fill="#B3C9EA"/>
<path d="M37.278 3.14519C31.864 -0.327281 34.509 -8.80176 40.9975 -8.80176C43.0639 -8.80176 45.0063 -7.72695 46.4528 -5.78402C47.6513 -4.1718 47.6513 -0.616653 46.4528 0.995564C44.2211 4.01331 40.1709 4.9641 37.278 3.14519Z" fill="#B3C9EA"/>
</g>
<defs>
<clipPath id="clip0_633_7766">
<rect width="529" height="494" fill="white" transform="matrix(1 0 0 -1 0 300)"/>
</clipPath>
</defs>
</svg>
