<svg width="547" height="510" viewBox="0 0 547 510" fill="none" xmlns="http://www.w3.org/2000/svg">
<g opacity="0.5" clip-path="url(#clip0_633_6944)">
<path d="M327.409 9.11843C319.225 6.27753 307.534 3.6627 297.175 2.43484L295.508 5.77605L295.157 7.23437C295.157 7.23429 295.156 7.23421 295.156 7.23413C292.442 6.58075 289.658 6.48801 286.651 7.00071C289.079 8.22939 291.096 9.65902 292.84 11.4914C295.285 14.0612 297.102 17.3274 298.824 21.6911C299.342 22.9719 300.904 28.4223 302.299 33.6691C305.877 46.9334 307.941 52.7705 311.465 59.8282L311.466 59.83C317.772 72.4977 326.165 79.8286 334.922 81.1783C346.323 82.9029 358.158 73.2031 361.088 58.6619L361.088 58.6615C361.507 56.5869 361.732 53.0388 361.732 49.4009C361.732 45.7622 361.506 42.2265 361.089 40.1752C358.289 26.4451 347.282 16.0041 327.41 9.11872L327.409 9.11843ZM325.822 36.8886L325.83 36.8942L325.837 36.9C326.292 37.2579 326.721 37.7595 327.062 38.2526C327.403 38.745 327.73 39.3367 327.918 39.9265C328.983 43.1678 327.058 45.7602 324.681 46.7527C322.311 47.7417 319.104 47.3203 317.384 44.4126C316.833 43.5074 316.473 42.5806 316.481 41.5431C316.489 40.5214 316.855 39.5904 317.357 38.6804L317.366 38.6644L317.375 38.6486C319.135 35.637 323.065 34.7741 325.822 36.8886Z" stroke="#B3C9EA" stroke-width="3"/>
<path d="M420.065 69.6725L420.06 69.6733C411.815 71.2417 405.57 74.8439 401.037 80.517C400.066 81.7329 398.097 84.6222 396.647 86.8851C389.851 97.8038 380.545 108.167 371.113 115.261C368.041 117.597 362.776 120.858 359.492 122.518C359.406 122.8 359.248 123.048 359.162 123.177C358.909 123.577 358.544 123.831 358.293 123.971C358.225 124.009 358.148 124.048 358.061 124.086C357.963 124.254 357.854 124.378 357.777 124.459C357.599 124.645 357.397 124.79 357.237 124.897L357.237 124.897L357.226 124.904C356.793 125.188 356.186 125.442 355.594 125.655C354.971 125.88 354.247 126.101 353.51 126.297C352.08 126.677 350.444 127.002 349.321 127.031C349.112 127.041 348.929 127.055 348.775 127.071C348.516 127.322 348.205 127.445 348.009 127.491C347.681 127.566 347.396 127.526 347.255 127.5C347.146 127.48 347.042 127.453 346.943 127.422C346.919 127.422 346.887 127.422 346.849 127.424C346.666 127.429 346.404 127.45 346.072 127.488C345.416 127.562 344.573 127.694 343.706 127.859C317.593 133.284 285.315 122.446 256.153 98.936C252.148 95.7607 245.98 89.987 242.117 85.932C243.032 88.6211 244.046 91.4891 244.728 93.2415L244.731 93.2496C246.801 98.6648 250.62 106.991 253.325 112.027C265.254 134.048 282.268 151.306 301.44 160.988C329.497 175.139 362.93 174.82 392.489 160.128C404.806 154.005 414.497 146.836 424.556 136.427L424.556 136.426C437.633 122.911 446.879 107.199 453.053 88.1046C455.132 81.6043 455.047 78.5619 453.591 76.2231L453.59 76.2208C451.661 73.1089 448.262 71.3439 439.952 70.1553L439.941 70.1537C436.752 69.6737 432.663 69.3775 428.897 69.2929C425.094 69.2075 421.773 69.3419 420.065 69.6725ZM358.381 123.088C358.385 123.075 358.389 123.061 358.392 123.047C358.359 123.063 358.328 123.078 358.297 123.092C358.302 123.161 358.302 123.232 358.298 123.305C358.328 123.245 358.357 123.172 358.381 123.088ZM355.745 124.183C355.746 124.183 355.743 124.181 355.737 124.177C355.742 124.181 355.745 124.183 355.745 124.183ZM347.008 127.424C347.007 127.424 347.006 127.424 347.004 127.424C347.022 127.426 347.025 127.425 347.008 127.424Z" stroke="#B3C9EA" stroke-width="3"/>
<mask id="path-3-inside-1_633_6944" fill="white">
<path d="M189.954 121.81C173.929 124.89 160.254 130.837 128.631 148.636C98.1609 165.793 81.5372 172.981 64.4008 176.446C61.3666 177.045 58.247 177.559 57.4351 177.559C56.6231 177.559 55.9821 177.73 55.9821 177.987C55.9821 178.201 56.2812 178.414 56.6658 178.414C57.5633 178.414 61.9222 180.639 64.4008 182.351C67.6486 184.576 73.1186 190.052 76.8365 194.801C81.3663 200.62 85.8534 207.337 93.1183 219.36C103.204 236.046 106.409 240.496 109.998 242.892C112.306 244.475 113.759 244.646 115.468 243.534C117.733 242.122 127.391 229.842 143.63 207.722C156.536 190.138 164.057 181.024 172.262 173.066C178.715 166.82 183.715 163.14 189.954 160.017C198.117 155.952 204.869 154.711 208.843 156.637C213.031 158.648 217.604 165.408 219.697 172.467C221.108 177.388 221.321 186.629 220.082 192.534C217.133 206.952 207.732 220.643 192.433 232.837C187.262 236.987 179.313 242.122 175.126 244.004C165.895 248.197 161.536 251.492 159.057 256.241C155.681 262.53 153.032 281.612 154.228 290.726C154.955 296.159 156.023 300.31 156.451 299.24C156.579 298.769 157.861 297.828 159.228 297.143C161.451 296.074 162.22 295.903 165.596 295.903C168.758 295.903 169.826 296.117 171.579 296.93C178.502 300.267 182.476 307.155 182.476 315.841C182.476 319.948 181.237 324.398 179.271 327.35C178.672 328.291 178.288 329.232 178.416 329.446C178.801 330.045 178.031 329.96 177.433 329.361C177.134 329.061 176.92 328.976 176.92 329.147C176.92 329.617 181.749 332.655 184.057 333.639C187.348 335.051 189.655 335.222 192.305 334.367C195.339 333.34 197.091 331.457 200.424 325.638C206.578 314.857 219.142 301.764 230.552 294.234C244.013 285.378 255.509 283.11 263.457 287.731C271.748 292.523 276.919 306.385 277.047 324.098C277.09 329.19 276.876 331.372 276.192 334.581C271.876 353.962 258.329 375.654 238.415 395.122C226.749 406.503 215.168 414.931 202.775 421.007C189.442 427.553 177.476 430.291 167.006 429.136C150.511 427.296 138.502 417.883 129.955 399.999C126.75 393.325 124.784 387.72 122.434 378.221C119.485 366.456 116.708 358.925 111.964 349.555C98.8874 323.927 75.5972 298.299 37.82 268.007C27.1791 259.45 0.854736 239.683 0.854736 240.239C0.854736 240.624 10.5982 253.631 22.6493 269.333C53.2898 309.209 64.7854 326.152 74.4433 345.491C77.7766 352.08 83.9731 367.012 83.5885 367.397C83.503 367.482 82.8193 366.327 82.0501 364.872C79.7424 360.508 71.9647 347.673 68.3751 342.325C64.1443 335.95 58.7171 329.19 56.324 327.221C54.3154 325.553 51.7086 324.098 51.7086 324.612C51.7086 324.826 54.5291 328.591 57.9479 333.083C66.0674 343.608 69.5289 348.871 73.0331 355.973C78.7595 367.525 81.4945 377.665 84.144 397.261C85.5543 407.315 86.6226 413.562 87.9474 419.081C94.443 445.951 105.639 467.343 121.579 483.259C133.972 495.624 148.246 503.967 164.912 508.545L170.211 510H187.518H204.869L209.783 508.46C253.201 494.982 287.902 464.006 309.012 419.937C321.32 394.138 329.14 364.83 330.721 338.346C331.362 328.12 330.422 309.508 328.798 299.582C328.456 297.4 328.756 297.357 331.149 299.069C334.738 301.679 337.644 305.059 339.525 308.824C342.089 313.958 343.029 317.809 344.866 330.73C346.277 340.528 346.875 343.138 348.713 347.587C354.354 361.065 370.464 379.334 380.592 383.612C387.943 386.736 394.139 386.008 399.054 381.43C401.062 379.591 404.225 375.141 404.823 373.387C404.866 373.173 405.635 373.472 406.489 374.071C411.19 377.237 428.583 376.681 457.685 372.403C461.788 371.804 465.976 371.162 466.959 370.948C467.984 370.777 468.668 370.777 468.582 370.948C468.155 371.675 456.318 377.879 450.378 380.532C445.207 382.842 434.993 386.565 431.831 387.335C429.78 387.805 433.241 387.591 437.557 386.95C458.155 383.955 476.745 375.654 493.796 361.92C499.95 356.957 510.419 346.304 515.206 340.143C532.342 318.023 542.983 292.309 546.188 265.055C546.915 259.065 546.915 244.945 546.188 239.383C542.983 214.268 532.299 195.529 514.266 183.463C504.522 176.96 491.574 172.467 477.172 170.628C471.531 169.9 454.437 169.9 449.138 170.67C414.994 175.377 388.626 193.133 371.234 223.125C360.764 241.266 353.969 266.894 353.157 291.71C353.029 295.86 352.815 299.539 352.73 299.839C352.601 300.224 352.003 299.882 350.977 298.855C347.046 295.133 341.619 292.138 332.559 288.8C329.183 287.56 326.362 286.319 326.277 286.062C324.995 281.27 321.277 270.873 319.696 267.579C313.499 254.658 304.44 245.758 293.713 242.079C280.85 237.629 264.654 239.255 246.706 246.785C244.996 247.513 243.586 248.069 243.586 247.983C243.586 247.898 244.74 245.459 246.107 242.549C254.013 225.992 259.184 209.819 261.62 194.373C262.816 186.629 262.945 173.451 261.834 167.205C258.458 147.909 247.646 134.388 230.039 127.5C221.407 124.077 211.407 122.109 200.894 121.681C197.689 121.553 194.612 121.424 194.014 121.339C193.416 121.253 191.621 121.467 189.954 121.81ZM462.001 233.222C469.352 235.062 475.719 238.827 481.061 244.475C494.48 258.637 494.864 277.248 482.215 296.288C474.608 307.754 464.608 317.723 439.438 338.902C424.053 351.909 421.147 354.433 413.37 361.835C407.771 367.14 406.96 367.782 407.301 366.584C408.284 363.204 408.968 357.043 408.968 351.609C408.968 343.565 407.985 338.945 403.583 326.152C395.934 303.861 395.421 298.555 399.566 286.233C409.566 256.797 425.079 238.185 443.754 233.393C449.096 231.982 456.788 231.939 462.001 233.222Z"/>
</mask>
<path d="M189.954 121.81C173.929 124.89 160.254 130.837 128.631 148.636C98.1609 165.793 81.5372 172.981 64.4008 176.446C61.3666 177.045 58.247 177.559 57.4351 177.559C56.6231 177.559 55.9821 177.73 55.9821 177.987C55.9821 178.201 56.2812 178.414 56.6658 178.414C57.5633 178.414 61.9222 180.639 64.4008 182.351C67.6486 184.576 73.1186 190.052 76.8365 194.801C81.3663 200.62 85.8534 207.337 93.1183 219.36C103.204 236.046 106.409 240.496 109.998 242.892C112.306 244.475 113.759 244.646 115.468 243.534C117.733 242.122 127.391 229.842 143.63 207.722C156.536 190.138 164.057 181.024 172.262 173.066C178.715 166.82 183.715 163.14 189.954 160.017C198.117 155.952 204.869 154.711 208.843 156.637C213.031 158.648 217.604 165.408 219.697 172.467C221.108 177.388 221.321 186.629 220.082 192.534C217.133 206.952 207.732 220.643 192.433 232.837C187.262 236.987 179.313 242.122 175.126 244.004C165.895 248.197 161.536 251.492 159.057 256.241C155.681 262.53 153.032 281.612 154.228 290.726C154.955 296.159 156.023 300.31 156.451 299.24C156.579 298.769 157.861 297.828 159.228 297.143C161.451 296.074 162.22 295.903 165.596 295.903C168.758 295.903 169.826 296.117 171.579 296.93C178.502 300.267 182.476 307.155 182.476 315.841C182.476 319.948 181.237 324.398 179.271 327.35C178.672 328.291 178.288 329.232 178.416 329.446C178.801 330.045 178.031 329.96 177.433 329.361C177.134 329.061 176.92 328.976 176.92 329.147C176.92 329.617 181.749 332.655 184.057 333.639C187.348 335.051 189.655 335.222 192.305 334.367C195.339 333.34 197.091 331.457 200.424 325.638C206.578 314.857 219.142 301.764 230.552 294.234C244.013 285.378 255.509 283.11 263.457 287.731C271.748 292.523 276.919 306.385 277.047 324.098C277.09 329.19 276.876 331.372 276.192 334.581C271.876 353.962 258.329 375.654 238.415 395.122C226.749 406.503 215.168 414.931 202.775 421.007C189.442 427.553 177.476 430.291 167.006 429.136C150.511 427.296 138.502 417.883 129.955 399.999C126.75 393.325 124.784 387.72 122.434 378.221C119.485 366.456 116.708 358.925 111.964 349.555C98.8874 323.927 75.5972 298.299 37.82 268.007C27.1791 259.45 0.854736 239.683 0.854736 240.239C0.854736 240.624 10.5982 253.631 22.6493 269.333C53.2898 309.209 64.7854 326.152 74.4433 345.491C77.7766 352.08 83.9731 367.012 83.5885 367.397C83.503 367.482 82.8193 366.327 82.0501 364.872C79.7424 360.508 71.9647 347.673 68.3751 342.325C64.1443 335.95 58.7171 329.19 56.324 327.221C54.3154 325.553 51.7086 324.098 51.7086 324.612C51.7086 324.826 54.5291 328.591 57.9479 333.083C66.0674 343.608 69.5289 348.871 73.0331 355.973C78.7595 367.525 81.4945 377.665 84.144 397.261C85.5543 407.315 86.6226 413.562 87.9474 419.081C94.443 445.951 105.639 467.343 121.579 483.259C133.972 495.624 148.246 503.967 164.912 508.545L170.211 510H187.518H204.869L209.783 508.46C253.201 494.982 287.902 464.006 309.012 419.937C321.32 394.138 329.14 364.83 330.721 338.346C331.362 328.12 330.422 309.508 328.798 299.582C328.456 297.4 328.756 297.357 331.149 299.069C334.738 301.679 337.644 305.059 339.525 308.824C342.089 313.958 343.029 317.809 344.866 330.73C346.277 340.528 346.875 343.138 348.713 347.587C354.354 361.065 370.464 379.334 380.592 383.612C387.943 386.736 394.139 386.008 399.054 381.43C401.062 379.591 404.225 375.141 404.823 373.387C404.866 373.173 405.635 373.472 406.489 374.071C411.19 377.237 428.583 376.681 457.685 372.403C461.788 371.804 465.976 371.162 466.959 370.948C467.984 370.777 468.668 370.777 468.582 370.948C468.155 371.675 456.318 377.879 450.378 380.532C445.207 382.842 434.993 386.565 431.831 387.335C429.78 387.805 433.241 387.591 437.557 386.95C458.155 383.955 476.745 375.654 493.796 361.92C499.95 356.957 510.419 346.304 515.206 340.143C532.342 318.023 542.983 292.309 546.188 265.055C546.915 259.065 546.915 244.945 546.188 239.383C542.983 214.268 532.299 195.529 514.266 183.463C504.522 176.96 491.574 172.467 477.172 170.628C471.531 169.9 454.437 169.9 449.138 170.67C414.994 175.377 388.626 193.133 371.234 223.125C360.764 241.266 353.969 266.894 353.157 291.71C353.029 295.86 352.815 299.539 352.73 299.839C352.601 300.224 352.003 299.882 350.977 298.855C347.046 295.133 341.619 292.138 332.559 288.8C329.183 287.56 326.362 286.319 326.277 286.062C324.995 281.27 321.277 270.873 319.696 267.579C313.499 254.658 304.44 245.758 293.713 242.079C280.85 237.629 264.654 239.255 246.706 246.785C244.996 247.513 243.586 248.069 243.586 247.983C243.586 247.898 244.74 245.459 246.107 242.549C254.013 225.992 259.184 209.819 261.62 194.373C262.816 186.629 262.945 173.451 261.834 167.205C258.458 147.909 247.646 134.388 230.039 127.5C221.407 124.077 211.407 122.109 200.894 121.681C197.689 121.553 194.612 121.424 194.014 121.339C193.416 121.253 191.621 121.467 189.954 121.81ZM462.001 233.222C469.352 235.062 475.719 238.827 481.061 244.475C494.48 258.637 494.864 277.248 482.215 296.288C474.608 307.754 464.608 317.723 439.438 338.902C424.053 351.909 421.147 354.433 413.37 361.835C407.771 367.14 406.96 367.782 407.301 366.584C408.284 363.204 408.968 357.043 408.968 351.609C408.968 343.565 407.985 338.945 403.583 326.152C395.934 303.861 395.421 298.555 399.566 286.233C409.566 256.797 425.079 238.185 443.754 233.393C449.096 231.982 456.788 231.939 462.001 233.222Z" stroke="#B3C9EA" stroke-width="6" mask="url(#path-3-inside-1_633_6944)"/>
<path d="M174.784 327.478C174.784 327.564 175.125 327.906 175.553 328.206C176.194 328.762 176.237 328.719 175.681 328.035C175.125 327.35 174.784 327.136 174.784 327.478Z" fill="#B3C9EA"/>
</g>
<defs>
<clipPath id="clip0_633_6944">
<rect width="547" height="510" fill="white"/>
</clipPath>
</defs>
</svg>
