<svg width="18" height="19" viewBox="0 0 18 19" fill="none" xmlns="http://www.w3.org/2000/svg">
<path fill-rule="evenodd" clip-rule="evenodd" d="M4.66887 0.521919C3.96111 0.561852 3.40721 0.7107 2.76159 1.03454C1.33272 1.7512 0.376093 3.04021 0.0687419 4.66295C0.00611934 4.99367 0 5.42571 0 9.51604C0 13.6955 0.00500672 14.0309 0.0721193 14.3637C0.501179 16.4916 2.04409 18.0269 4.15387 18.4252C4.50079 18.4907 4.87482 18.4962 9 18.4962C13.1252 18.4962 13.4992 18.4907 13.8461 18.4252C15.9634 18.0254 17.5293 16.4595 17.929 14.3423C17.9945 13.9954 18 13.6213 18 9.49617C18 5.42467 17.9939 4.99359 17.9313 4.66295C17.527 2.52818 15.9363 0.933971 13.8518 0.574249C13.5634 0.524461 12.8257 0.513296 9.31661 0.505468C7.01166 0.500342 4.9202 0.507773 4.66887 0.521919ZM15.3974 2.58548C15.6375 2.69416 15.7858 2.84018 15.8987 3.07895C16.2075 3.73224 15.7253 4.48875 15 4.48875C14.4496 4.48875 14.0084 4.04714 14.0084 3.49617C14.0084 3.2485 14.112 2.98224 14.2772 2.80573C14.5439 2.52059 15.039 2.42324 15.3974 2.58548ZM9.94379 4.58845C10.5833 4.71159 11.2233 4.97658 11.8013 5.35748C12.1625 5.59545 12.7275 6.138 13.0132 6.521C13.4454 7.10042 13.8023 7.93235 13.9316 8.66173C13.9995 9.04498 13.9995 9.94736 13.9316 10.3306C13.7581 11.3092 13.2991 12.2164 12.6168 12.9295C11.8788 13.7007 10.9604 14.2057 9.92483 14.4096C9.49593 14.494 8.5885 14.5035 8.16556 14.4281C6.58923 14.1468 5.23426 13.1336 4.51931 11.7015C4.33295 11.3281 4.14274 10.7499 4.0684 10.3306C4.00045 9.94736 4.00045 9.04498 4.0684 8.66173C4.24192 7.6831 4.7009 6.7759 5.38323 6.06282C6.23301 5.17474 7.24188 4.67722 8.52318 4.51438C8.78174 4.48152 9.61383 4.52491 9.94379 4.58845ZM8.24948 6.59511C7.25503 6.86293 6.45676 7.61233 6.15612 8.56025C5.90118 9.36405 5.99726 10.3032 6.40625 11.0054C6.60926 11.3539 7.12339 11.8674 7.47902 12.0767C8.40067 12.6192 9.59933 12.6192 10.521 12.0767C10.8766 11.8674 11.3907 11.3539 11.5937 11.0054C12.0045 10.3001 12.0999 9.36759 11.8439 8.56025C11.7 8.10651 11.4912 7.77544 11.106 7.39021C10.7231 7.00736 10.3947 6.79939 9.93377 6.648C9.49077 6.50249 8.68709 6.47726 8.24948 6.59511Z" fill="#4B87E1"/>
</svg>
