<svg width="15" height="13" viewBox="0 0 15 13" fill="none" xmlns="http://www.w3.org/2000/svg">
<path fill-rule="evenodd" clip-rule="evenodd" d="M13.5 0.5H1.5C0.847511 0.5 0.288849 0.922224 0.083742 1.50694C0.154588 1.51893 0.223953 1.54644 0.286731 1.59038L7.5 6.63967L14.7133 1.59038C14.776 1.54644 14.8454 1.51893 14.9163 1.50694C14.7112 0.922224 14.1525 0.5 13.5 0.5ZM15 2.61033L7.78673 7.65962C7.61457 7.78013 7.38543 7.78013 7.21327 7.65962L0 2.61033V11C0 11.825 0.675 12.5 1.5 12.5H13.5C14.325 12.5 15 11.825 15 11V2.61033Z" fill="#4B87E1"/>
</svg>
